# Blender v3.6.1 OBJ File: 'NatureLevel.blend'
# www.blender.org
mtllib Grass_2.mtl
o Grass_2
v -0.134580 0.666307 -0.237296
v -0.114435 -0.015862 -0.249623
v -0.122479 0.666307 -0.208855
v -0.099628 -0.015862 -0.214821
v -0.107032 0.996921 -0.232222
v 0.065000 0.479759 -0.061565
v 0.088063 -0.015862 -0.056479
v 0.053998 0.479759 -0.032681
v 0.074600 -0.015862 -0.021135
v 0.081332 0.689435 -0.038807
v -0.116744 0.666307 -0.136483
v -0.112951 -0.015862 -0.113173
v -0.147649 0.666307 -0.136038
v -0.150768 -0.015862 -0.112628
v -0.131860 0.996921 -0.112900
v 0.082511 0.854786 0.155705
v 0.073018 -0.015862 0.177330
v 0.056333 0.854786 0.139273
v 0.040985 -0.015862 0.157222
v 0.057002 1.185400 0.167276
v 0.113398 0.479759 -0.136659
v 0.090006 -0.015862 -0.133409
v 0.113672 0.479759 -0.167566
v 0.090341 -0.015862 -0.171229
v 0.090174 0.689435 -0.152319
v -0.017949 0.666307 -0.065588
v -0.033244 -0.015862 -0.083582
v 0.008277 0.666307 -0.081944
v -0.001153 -0.015862 -0.103596
v -0.017199 0.996921 -0.093590
v -0.150625 0.479759 -0.001048
v -0.173848 -0.015862 -0.005341
v -0.140619 0.479759 -0.030292
v -0.161604 -0.015862 -0.041125
v -0.167726 0.689435 -0.023233
v -0.041698 0.350834 0.011509
v -0.051155 -0.015862 0.033150
v -0.067904 0.348753 -0.004879
v -0.083222 -0.015862 0.013096
v -0.067188 0.679367 0.023123
v 0.125207 0.803443 0.071288
v 0.112934 -0.015862 0.091466
v 0.101436 0.803443 0.051534
v 0.083846 -0.015862 0.067294
v 0.098390 1.134057 0.079380
v 0.026136 0.164286 -0.168702
v 0.013863 -0.015862 -0.148525
v 0.002364 0.164286 -0.188456
v -0.015225 -0.015862 -0.172697
v -0.000681 0.373962 -0.160611
v -0.123121 0.350834 0.100874
v -0.141935 -0.015862 0.086598
v -0.101035 0.350834 0.079251
v -0.114910 -0.015862 0.060139
v -0.128422 0.681447 0.073369
v -0.030577 0.350834 0.134596
v -0.054193 -0.015862 0.134429
v -0.025838 0.350834 0.104053
v -0.048394 -0.015862 0.097056
v -0.051294 0.681448 0.115742
v -0.117386 0.666102 -0.244611
v -0.097251 -0.015217 -0.256934
v -0.105285 0.666102 -0.216170
v -0.082444 -0.015217 -0.222132
v -0.089880 0.995591 -0.239519
v 0.082179 0.479492 -0.068562
v 0.105206 -0.014640 -0.063461
v 0.071164 0.479000 -0.039672
v 0.091744 -0.014640 -0.028118
v 0.098311 0.686573 -0.045723
v -0.132871 0.665404 -0.128859
v -0.129036 -0.014237 -0.105568
v -0.163790 0.665815 -0.128406
v -0.166853 -0.014237 -0.105023
v -0.147752 0.993607 -0.105387
v 0.065468 0.854434 0.163183
v 0.055987 -0.015079 0.184802
v 0.039288 0.854582 0.146752
v 0.023954 -0.015079 0.164695
v 0.040018 1.183788 0.174728
v 0.096180 0.479540 -0.129475
v 0.072810 -0.014895 -0.126235
v 0.096458 0.479301 -0.160383
v 0.073145 -0.014895 -0.164054
v 0.073081 0.687163 -0.145187
v -0.031869 0.665181 -0.061284
v -0.046986 -0.012665 -0.079334
v -0.005607 0.664552 -0.077652
v -0.014894 -0.012665 -0.099348
v -0.030334 0.990615 -0.089528
v -0.167812 0.479502 0.005973
v -0.191003 -0.014677 0.001667
v -0.157795 0.479038 -0.023275
v -0.178759 -0.014677 -0.034117
v -0.184726 0.686658 -0.016288
v -0.058741 0.350481 0.018988
v -0.068186 -0.015078 0.040623
v -0.084948 0.348549 0.002600
v -0.100252 -0.015078 0.020569
v -0.084171 0.677753 0.030575
v 0.108112 0.803140 0.078730
v 0.095849 -0.015138 0.098902
v 0.084339 0.803252 0.058976
v 0.066761 -0.015138 0.074731
v 0.081346 1.132566 0.086799
v 0.009045 0.163786 -0.161263
v -0.003210 -0.014866 -0.141093
v -0.014732 0.164066 -0.181014
v -0.032299 -0.014866 -0.165265
v -0.017646 0.371622 -0.153227
v -0.139755 0.350321 0.107156
v -0.158509 -0.014181 0.092858
v -0.117655 0.349897 0.085528
v -0.131484 -0.014181 0.066399
v -0.144784 0.678022 0.079548
v -0.047790 0.350636 0.141717
v -0.071393 -0.015105 0.141545
v -0.043050 0.350502 0.111174
v -0.065594 -0.015105 0.104171
v -0.068449 0.679888 0.122839
vn -0.9196 -0.0342 0.3913
vn -0.9179 0.0705 0.3905
vn -0.9335 -0.0471 -0.3556
vn -0.9288 0.1107 -0.3538
vn -0.0144 -0.0342 -0.9993
vn -0.0144 0.0705 -0.9974
vn 0.5315 -0.0268 -0.8467
vn 0.5303 0.0705 -0.8449
vn 0.9989 -0.0471 0.0089
vn 0.9938 0.1107 0.0088
vn 0.5289 -0.0342 0.8480
vn 0.5279 0.0705 0.8464
vn 0.9451 -0.0471 0.3234
vn 0.9403 0.1107 0.3217
vn 0.5328 -0.0635 -0.8439
vn 0.5248 0.0707 -0.8483
vn 0.6389 -0.0285 -0.7688
vn 0.6375 0.0705 -0.7672
vn 0.6338 -0.1286 -0.7627
vn 0.6352 0.1107 -0.7644
vn 0.6982 -0.0636 0.7131
vn 0.6978 0.0705 0.7128
vn 0.9862 -0.0636 0.1530
vn 0.9857 0.0705 0.1529
vn 0.9196 0.0343 -0.3913
vn 0.9179 -0.0706 -0.3905
vn 0.9331 0.0472 0.3566
vn 0.9292 -0.1113 0.3524
vn 0.0144 0.0343 0.9993
vn 0.0137 -0.0707 0.9974
vn -0.5314 0.0268 0.8467
vn -0.5306 -0.0706 0.8447
vn -0.9988 0.0472 -0.0093
vn -0.9938 -0.1112 -0.0081
vn -0.5280 0.0344 -0.8485
vn -0.5288 -0.0709 -0.8458
vn -0.9448 0.0472 -0.3243
vn -0.9407 -0.1112 -0.3204
vn -0.5325 0.0637 0.8440
vn -0.5251 -0.0708 0.8481
vn -0.6388 0.0285 0.7688
vn -0.6377 -0.0706 0.7670
vn -0.6337 0.1296 0.7626
vn -0.6358 -0.1112 0.7638
vn -0.6974 0.0639 -0.7139
vn -0.6984 -0.0707 -0.7122
vn -0.9861 0.0637 -0.1533
vn -0.9858 -0.0706 -0.1527
vn -0.3916 0.0051 -0.9201
vn 0.0318 -0.9994 -0.0135
vn 0.3915 0.0051 0.9202
vn -0.3906 0.0467 -0.9194
vn 0.3941 0.0466 0.9179
vn -0.3754 -0.0271 -0.9265
vn 0.0840 -0.9959 0.0320
vn 0.3783 0.0373 0.9249
vn -0.3723 0.1303 -0.9189
vn 0.3740 -0.0219 0.9272
vn 0.4299 0.0332 0.9022
vn 0.0031 -0.9766 0.2152
vn -0.4265 -0.0292 -0.9040
vn 0.4290 -0.0451 0.9022
vn -0.4401 0.0836 -0.8941
vn 0.4024 0.0184 0.9153
vn -0.0270 -0.9987 0.0431
vn -0.4017 -0.0118 -0.9157
vn 0.4018 -0.0010 0.9157
vn -0.4068 0.0779 -0.9102
vn 0.3844 -0.0121 0.9231
vn -0.0564 -0.9984 -0.0005
vn -0.3855 0.0250 -0.9224
vn 0.3815 0.1108 0.9177
vn -0.3877 0.0238 -0.9215
vn 0.2884 -0.0317 0.9570
vn -0.3478 -0.7538 -0.5576
vn -0.2992 0.0347 -0.9536
vn 0.2884 0.0814 0.9540
vn -0.2709 -0.0547 -0.9610
vn 0.3765 -0.0257 0.9260
vn -0.0800 -0.9964 -0.0274
vn -0.3792 0.0363 -0.9246
vn 0.3733 0.1292 0.9187
vn -0.3757 -0.0175 -0.9266
vn 0.4031 0.0437 0.9141
vn -0.0270 -0.9987 0.0432
vn -0.4014 -0.0283 -0.9155
vn 0.4019 -0.0012 0.9157
vn -0.4068 0.0780 -0.9102
vn 0.3996 0.0166 0.9165
vn -0.0278 -0.9991 0.0334
vn -0.3990 -0.0091 -0.9169
vn 0.3990 0.0099 0.9169
vn -0.4034 0.0731 -0.9121
vn 0.4017 0.0755 0.9127
vn -0.0382 -0.9982 0.0460
vn -0.3983 -0.0413 -0.9163
vn 0.3987 0.0156 0.9170
vn -0.4097 0.1142 -0.9050
vn 0.3480 -0.0546 0.9359
vn -0.1607 -0.9733 -0.1641
vn -0.3557 0.0625 -0.9325
vn 0.3498 0.0840 0.9331
vn -0.3446 -0.0452 -0.9376
vn 0.3812 -0.0250 0.9241
vn -0.0470 -0.9989 -0.0073
vn -0.3827 0.0411 -0.9230
vn 0.3804 0.0767 0.9216
vn -0.3825 0.0032 -0.9239
vn 0.9989 -0.0471 0.0088
vn 0.5291 -0.0639 -0.8461
vn 0.9335 0.0472 0.3556
vn 0.0151 0.0343 0.9993
vn -0.5313 0.0268 0.8468
vn -0.9988 0.0472 -0.0088
vn -0.5289 0.0344 -0.8480
vn -0.9451 0.0472 -0.3234
vn -0.5292 0.0641 0.8461
vn -0.6388 0.0285 0.7689
vn -0.6327 0.1293 0.7635
vn -0.6982 0.0640 -0.7131
vn -0.9862 0.0637 -0.1530
vn -0.3914 0.0051 -0.9202
vn 0.3913 0.0051 0.9202
vn -0.3880 0.0466 -0.9205
vn 0.3915 0.0467 0.9190
vn -0.3774 -0.0271 -0.9256
vn 0.3747 0.0373 0.9264
vn -0.3555 0.1282 -0.9258
vn 0.3763 -0.0220 0.9263
vn 0.4256 0.0334 0.9043
vn -0.4296 -0.0290 -0.9025
vn 0.4345 -0.0443 0.8996
vn -0.4280 0.0841 -0.8998
vn 0.4014 0.0184 0.9157
vn -0.4022 -0.0118 -0.9155
vn 0.4019 -0.0010 0.9157
vn -0.4014 0.0784 -0.9126
vn 0.3852 -0.0121 0.9228
vn -0.3838 0.0250 -0.9231
vn 0.3701 0.1110 0.9223
vn -0.3855 0.0239 -0.9224
vn 0.2976 -0.0320 0.9541
vn -0.3477 -0.7538 -0.5576
vn -0.2879 0.0344 -0.9571
vn 0.2588 0.0809 0.9625
vn -0.2883 -0.0567 -0.9559
vn 0.3784 -0.0257 0.9253
vn -0.3758 0.0363 -0.9260
vn 0.3573 0.1270 0.9253
vn -0.3775 -0.0176 -0.9258
vn 0.4007 0.0437 0.9152
vn -0.4028 -0.0283 -0.9149
vn -0.4014 0.0785 -0.9125
vn 0.3988 0.0166 0.9169
vn -0.3994 -0.0091 -0.9167
vn 0.3984 0.0099 0.9172
vn -0.3987 0.0736 -0.9141
vn 0.3961 0.0755 0.9151
vn -0.4008 -0.0412 -0.9152
vn 0.3972 0.0155 0.9176
vn -0.3977 0.1163 -0.9101
vn 0.3543 -0.0545 0.9336
vn -0.3472 0.0619 -0.9358
vn 0.3367 0.0834 0.9379
vn -0.3507 -0.0460 -0.9354
vn 0.3824 -0.0250 0.9237
vn -0.3804 0.0412 -0.9239
vn 0.3752 0.0762 0.9238
vn -0.3823 0.0032 -0.9240
usemtl Green.023
s off
f 2//1 3//1 1//1
f 1//2 3//2 5//2
f 7//3 8//3 6//3
f 6//4 8//4 10//4
f 11//5 14//5 13//5
f 11//6 13//6 15//6
f 17//7 18//7 16//7
f 16//8 18//8 20//8
f 22//9 23//9 21//9
f 21//10 23//10 25//10
f 27//11 28//11 26//11
f 26//12 28//12 30//12
f 32//13 33//13 31//13
f 31//14 33//14 35//14
f 37//15 38//15 36//15
f 36//16 38//16 40//16
f 41//17 44//17 43//17
f 41//18 43//18 45//18
f 46//19 49//19 48//19
f 46//20 48//20 50//20
f 52//21 53//21 51//21
f 51//22 53//22 55//22
f 57//23 58//23 56//23
f 56//24 58//24 60//24
f 63//25 62//25 61//25
f 61//26 65//26 63//26
f 68//27 67//27 66//27
f 66//28 70//28 68//28
f 71//29 74//29 72//29
f 71//30 75//30 73//30
f 76//31 79//31 77//31
f 76//32 80//32 78//32
f 83//33 82//33 81//33
f 81//34 85//34 83//34
f 88//35 87//35 86//35
f 86//36 90//36 88//36
f 93//37 92//37 91//37
f 91//38 95//38 93//38
f 98//39 97//39 96//39
f 96//40 100//40 98//40
f 101//41 104//41 102//41
f 101//42 105//42 103//42
f 106//43 109//43 107//43
f 106//44 110//44 108//44
f 113//45 112//45 111//45
f 111//46 115//46 113//46
f 118//47 117//47 116//47
f 116//48 120//48 118//48
f 2//49 61//49 62//49
f 4//50 62//50 64//50
f 4//51 63//51 3//51
f 5//52 61//52 1//52
f 5//53 63//53 65//53
f 7//54 66//54 67//54
f 7//55 69//55 9//55
f 9//56 68//56 8//56
f 6//57 70//57 66//57
f 10//58 68//58 70//58
f 11//59 72//59 12//59
f 14//60 72//60 74//60
f 13//61 74//61 73//61
f 11//62 75//62 71//62
f 13//63 75//63 15//63
f 17//64 76//64 77//64
f 19//65 77//65 79//65
f 19//66 78//66 18//66
f 20//67 76//67 16//67
f 18//68 80//68 20//68
f 22//69 81//69 82//69
f 22//70 84//70 24//70
f 24//71 83//71 23//71
f 25//72 81//72 21//72
f 25//73 83//73 85//73
f 26//74 87//74 27//74
f 27//75 89//75 29//75
f 28//76 89//76 88//76
f 26//77 90//77 86//77
f 28//78 90//78 30//78
f 32//79 91//79 92//79
f 32//80 94//80 34//80
f 34//81 93//81 33//81
f 31//82 95//82 91//82
f 35//83 93//83 95//83
f 37//84 96//84 97//84
f 39//85 97//85 99//85
f 39//86 98//86 38//86
f 40//87 96//87 36//87
f 38//88 100//88 40//88
f 42//89 101//89 102//89
f 44//90 102//90 104//90
f 44//91 103//91 43//91
f 45//92 101//92 41//92
f 43//93 105//93 45//93
f 47//94 106//94 107//94
f 49//95 107//95 109//95
f 49//96 108//96 48//96
f 50//97 106//97 46//97
f 48//98 110//98 50//98
f 52//99 111//99 112//99
f 52//100 114//100 54//100
f 53//101 114//101 113//101
f 51//102 115//102 111//102
f 53//103 115//103 55//103
f 57//104 116//104 117//104
f 57//105 119//105 59//105
f 59//106 118//106 58//106
f 56//107 120//107 116//107
f 60//108 118//108 120//108
f 2//1 4//1 3//1
f 7//3 9//3 8//3
f 11//5 12//5 14//5
f 17//7 19//7 18//7
f 22//109 24//109 23//109
f 27//11 29//11 28//11
f 32//13 34//13 33//13
f 37//110 39//110 38//110
f 41//17 42//17 44//17
f 46//19 47//19 49//19
f 52//21 54//21 53//21
f 57//23 59//23 58//23
f 63//25 64//25 62//25
f 68//111 69//111 67//111
f 71//112 73//112 74//112
f 76//113 78//113 79//113
f 83//114 84//114 82//114
f 88//115 89//115 87//115
f 93//116 94//116 92//116
f 98//117 99//117 97//117
f 101//118 103//118 104//118
f 106//119 108//119 109//119
f 113//120 114//120 112//120
f 118//121 119//121 117//121
f 2//122 1//122 61//122
f 4//50 2//50 62//50
f 4//123 64//123 63//123
f 5//124 65//124 61//124
f 5//125 3//125 63//125
f 7//126 6//126 66//126
f 7//55 67//55 69//55
f 9//127 69//127 68//127
f 6//128 10//128 70//128
f 10//129 8//129 68//129
f 11//130 71//130 72//130
f 14//60 12//60 72//60
f 13//131 14//131 74//131
f 11//132 15//132 75//132
f 13//133 73//133 75//133
f 17//134 16//134 76//134
f 19//65 17//65 77//65
f 19//135 79//135 78//135
f 20//136 80//136 76//136
f 18//137 78//137 80//137
f 22//138 21//138 81//138
f 22//70 82//70 84//70
f 24//139 84//139 83//139
f 25//140 85//140 81//140
f 25//141 23//141 83//141
f 26//142 86//142 87//142
f 27//143 87//143 89//143
f 28//144 29//144 89//144
f 26//145 30//145 90//145
f 28//146 88//146 90//146
f 32//147 31//147 91//147
f 32//80 92//80 94//80
f 34//148 94//148 93//148
f 31//149 35//149 95//149
f 35//150 33//150 93//150
f 37//151 36//151 96//151
f 39//85 37//85 97//85
f 39//152 99//152 98//152
f 40//87 100//87 96//87
f 38//153 98//153 100//153
f 42//154 41//154 101//154
f 44//90 42//90 102//90
f 44//155 104//155 103//155
f 45//156 105//156 101//156
f 43//157 103//157 105//157
f 47//158 46//158 106//158
f 49//95 47//95 107//95
f 49//159 109//159 108//159
f 50//160 110//160 106//160
f 48//161 108//161 110//161
f 52//162 51//162 111//162
f 52//100 112//100 114//100
f 53//163 54//163 114//163
f 51//164 55//164 115//164
f 53//165 113//165 115//165
f 57//166 56//166 116//166
f 57//105 117//105 119//105
f 59//167 119//167 118//167
f 56//168 60//168 120//168
f 60//169 58//169 118//169
