# Blender v3.6.1 OBJ File: 'NatureLevel.blend'
# www.blender.org
mtllib Rock_3.mtl
o Rock_3
v -0.438269 -0.082813 -0.223961
v -0.302785 0.472205 -0.205689
v 0.224723 -0.082813 -0.223961
v 0.171901 0.319176 -0.148458
v -0.375068 -0.082813 0.381058
v -0.322698 0.461472 0.278716
v 0.194329 -0.082813 0.424008
v 0.171901 0.304707 0.204243
v -0.006784 -0.121333 -0.223961
v 0.083519 0.454137 -0.102699
v -0.006784 -0.121333 0.461515
v 0.050830 0.443267 0.276998
v 0.061650 0.541523 0.276998
v -0.257126 0.554656 0.252941
v -0.263927 0.524514 -0.156757
v -0.296295 0.374469 -0.270511
v 0.000000 -0.002045 0.513990
v 0.214758 -0.002045 0.473938
v 0.010394 0.319621 -0.209784
v 0.000000 -0.002045 -0.288593
v -0.460759 -0.002045 -0.288593
v 0.247213 -0.002045 -0.288593
v 0.212838 0.117603 -0.217132
v 0.179872 0.076991 0.405565
v -0.393271 0.182119 0.398852
v -0.007040 0.182119 0.452126
v -0.428604 0.186784 -0.231746
v 0.212838 0.117603 -0.258511
v 0.005197 0.184452 -0.250778
v -0.428604 0.186784 -0.273126
v 0.277600 -0.002045 -0.247213
v 0.245144 -0.002045 0.444716
v -0.393271 -0.002045 0.428075
v 0.177978 0.190849 0.246195
v -0.357984 0.321795 0.280075
v 0.021895 0.312693 0.305853
v 0.167631 0.232749 -0.195645
v 0.177978 0.231688 -0.178264
vn 0.3122 0.4820 -0.8187
vn 0.8848 0.4596 0.0768
vn 0.9933 0.0992 0.0591
vn -0.0670 0.0266 0.9974
vn -0.0889 -0.9960 0.0093
vn 0.0169 0.2555 0.9667
vn 0.7719 0.6301 0.0845
vn 0.1641 -0.9864 0.0077
vn -0.9558 0.2888 0.0557
vn 0.2556 0.5461 -0.7978
vn 0.0568 0.9737 -0.2208
vn 0.2373 0.5638 -0.7911
vn -0.7939 0.6077 -0.0192
vn 0.9906 -0.1091 0.0822
vn 0.3195 0.4419 -0.8382
vn -0.2033 0.3048 0.9305
vn 0.6609 -0.5724 -0.4853
vn 0.0000 -0.6248 -0.7808
vn -0.9938 0.0074 -0.1106
vn -0.8173 0.5762 0.0000
vn -0.0423 -0.4741 -0.8795
vn -0.9252 0.0441 0.3770
vn 0.0000 0.2438 -0.9698
vn 0.0000 0.0816 -0.9967
vn 0.8432 0.2249 -0.4882
vn 0.5077 0.6808 0.5279
vn -0.9938 0.0386 0.1038
vn 0.5889 -0.5275 0.6123
vn 0.7534 0.3555 -0.5532
vn -0.1817 -0.5250 0.8315
vn 0.8412 -0.5393 0.0395
vn 0.5436 0.3156 0.7777
vn -0.9557 -0.0461 -0.2907
vn 0.2417 -0.4022 0.8831
vn 0.1342 0.6815 0.7194
vn 0.5165 0.6996 0.4937
vn -0.1027 0.6593 0.7448
vn 0.0513 -0.0223 -0.9984
vn 0.9985 0.0552 0.0053
vn 0.9308 0.3654 0.0000
vn 0.2351 0.2738 -0.9326
vn 0.7618 0.6468 0.0357
vn 0.9586 0.2836 0.0273
vn 0.0149 0.2126 0.9770
vn -0.1040 -0.9946 0.0000
vn -0.0749 0.0082 0.9972
vn 0.8398 0.5424 0.0223
vn 0.1881 -0.9821 0.0000
vn -0.8204 0.5706 -0.0373
vn 0.2427 0.5200 -0.8190
vn 0.2092 0.9750 -0.0752
vn -0.8212 0.5700 -0.0283
vn -0.1350 0.1553 0.9786
vn 0.0796 -0.4784 -0.8745
vn -0.9690 0.2445 -0.0344
vn -0.9858 0.1679 0.0000
vn 0.0272 0.1979 -0.9798
vn 0.0515 0.1971 -0.9790
vn -0.9959 -0.0721 0.0553
vn 0.8794 0.4760 0.0000
vn -0.2352 -0.3801 0.8945
vn 0.5620 0.0578 0.8251
vn 0.1534 -0.5474 0.8227
vn 0.3889 0.3067 0.8687
vn 0.6262 0.5160 0.5845
vn -0.0270 0.7484 0.6627
vn 0.2337 0.2739 -0.9329
vn 0.9977 0.0683 0.0028
vn 0.7988 0.3978 -0.4513
vn 0.1343 0.5149 -0.8466
usemtl Rock.002
s off
f 19//1 10//1 4//1
f 24//2 31//2 23//2
f 23//3 34//3 24//3
f 36//4 6//4 35//4
f 9//5 5//5 1//5
f 12//6 14//6 6//6
f 8//7 10//7 12//7
f 7//8 9//8 3//8
f 35//9 27//9 25//9
f 2//10 19//10 16//10
f 10//11 14//11 13//11
f 10//12 2//12 15//12
f 6//13 15//13 2//13
f 12//14 10//14 13//14
f 19//15 4//15 37//15
f 26//16 33//16 17//16
f 3//17 22//17 31//17
f 3//18 20//18 22//18
f 35//19 2//19 16//19
f 27//20 16//20 30//20
f 1//21 20//21 9//21
f 27//22 21//22 1//22
f 20//23 28//23 22//23
f 30//24 20//24 21//24
f 4//25 38//25 37//25
f 18//26 32//26 24//26
f 5//27 27//27 1//27
f 7//28 32//28 18//28
f 28//29 31//29 22//29
f 5//30 17//30 33//30
f 3//31 32//31 7//31
f 8//32 36//32 34//32
f 25//33 5//33 33//33
f 7//34 17//34 11//34
f 24//35 17//35 18//35
f 34//36 26//36 24//36
f 26//37 35//37 25//37
f 16//38 29//38 30//38
f 38//39 8//39 34//39
f 37//40 23//40 28//40
f 37//41 29//41 19//41
f 24//42 32//42 31//42
f 23//43 38//43 34//43
f 36//44 12//44 6//44
f 9//45 11//45 5//45
f 12//46 13//46 14//46
f 8//47 4//47 10//47
f 7//48 11//48 9//48
f 35//49 16//49 27//49
f 2//50 10//50 19//50
f 10//51 15//51 14//51
f 6//52 14//52 15//52
f 26//53 25//53 33//53
f 3//54 9//54 20//54
f 35//55 6//55 2//55
f 1//18 21//18 20//18
f 27//56 30//56 21//56
f 20//57 29//57 28//57
f 30//58 29//58 20//58
f 5//59 25//59 27//59
f 28//60 23//60 31//60
f 5//61 11//61 17//61
f 3//31 31//31 32//31
f 8//62 12//62 36//62
f 7//63 18//63 17//63
f 24//64 26//64 17//64
f 34//65 36//65 26//65
f 26//66 36//66 35//66
f 16//67 19//67 29//67
f 38//68 4//68 8//68
f 37//69 38//69 23//69
f 37//70 28//70 29//70
