# Blender v3.6.1 OBJ File: 'NatureLevel.blend'
# www.blender.org
mtllib Rock_4.mtl
o Rock_4
v -0.302785 -0.205689 -0.572949
v 0.185011 -0.148458 -0.419920
v -0.308197 0.162863 -0.466687
v 0.150255 0.127170 -0.255465
v 0.083519 -0.102699 -0.554881
v 0.062498 0.154930 -0.417901
v 0.079992 0.123076 -0.509828
v -0.237994 0.106456 -0.541100
v -0.263927 -0.156757 -0.625258
v -0.296295 -0.270511 -0.475213
v 0.010394 -0.209784 -0.420365
v 0.224044 -0.217132 -0.218347
v 0.172939 0.438101 -0.088587
v -0.397184 0.453644 -0.180484
v -0.011557 0.510511 -0.172134
v -0.428604 -0.231746 -0.287528
v 0.224044 -0.258511 -0.218347
v 0.005197 -0.250778 -0.285195
v -0.428604 -0.273126 -0.287528
v 0.163687 0.246195 -0.190849
v -0.352813 0.210077 -0.338092
v 0.021895 0.305853 -0.312693
v -0.302785 -0.205689 0.572949
v 0.185010 -0.148458 0.419920
v -0.322698 0.278716 0.461472
v 0.152638 0.204243 0.304707
v 0.083519 -0.102699 0.554881
v 0.050830 0.276998 0.443267
v 0.061650 0.276998 0.541523
v -0.257126 0.252941 0.554656
v -0.263927 -0.156757 0.625258
v -0.296295 -0.270511 0.475213
v 0.010394 -0.209784 0.420365
v 0.212061 -0.210279 0.235636
v 0.174735 0.405565 0.076991
v -0.393270 0.398852 0.182119
v -0.007040 0.452126 0.182119
v -0.428604 -0.231746 0.287528
v 0.212061 -0.251659 0.235636
v 0.005197 -0.250778 0.285195
v -0.428604 -0.273126 0.287528
v 0.163687 0.246195 0.190849
v -0.357984 0.280075 0.321795
v 0.021895 0.305853 0.312693
v 0.174735 0.405565 0.000000
v -0.393270 0.398852 0.000000
v -0.007040 0.452126 0.000000
v -0.428604 -0.231746 0.000000
v 0.224044 -0.258511 0.000000
v 0.005197 -0.250778 0.000000
v -0.428604 -0.273126 0.000000
v 0.174894 0.216533 0.129087
v 0.186878 0.252217 0.000000
v 0.187425 0.252368 -0.125369
v -0.439487 0.234958 -0.214638
v -0.432381 0.276906 0.202503
v -0.433550 0.256032 0.000000
v 0.304083 -0.207832 -0.146806
v 0.304083 -0.249211 -0.146806
v 0.296336 -0.217132 0.000000
v 0.296336 -0.258511 0.000000
v 0.288712 -0.207832 0.186079
v 0.288712 -0.249211 0.186079
v 0.270918 0.174267 0.081171
v 0.270489 0.214940 -0.007305
v 0.256200 0.210112 -0.108207
vn 0.2890 -0.8193 -0.4951
vn 0.9344 0.0827 -0.3465
vn -0.2017 0.8947 -0.3985
vn 0.0897 0.8326 -0.5465
vn 0.8491 0.3455 -0.3997
vn -0.7707 0.2412 -0.5897
vn 0.2556 -0.7978 -0.5461
vn 0.0858 0.1963 -0.9768
vn 0.2373 -0.7911 -0.5638
vn -0.8711 0.2253 -0.4363
vn 0.9806 -0.0235 0.1948
vn 0.3202 -0.9099 -0.2636
vn -0.9985 -0.0284 0.0475
vn -0.8173 0.0000 -0.5762
vn 0.9818 0.0000 -0.1901
vn 0.6908 0.2832 -0.6653
vn 0.5138 0.5412 -0.6657
vn -0.0643 0.5578 -0.8275
vn 0.0513 -0.9984 0.0223
vn -1.0000 0.0000 0.0000
vn 0.2341 0.9141 0.3310
vn -0.1450 0.9358 0.3212
vn 0.5180 0.2494 0.8182
vn -0.0353 -0.9994 0.0000
vn -0.9811 0.1780 0.0753
vn 0.6502 0.1434 -0.7461
vn 0.0514 -0.9987 0.0000
vn 0.2890 -0.8193 0.4951
vn 0.9864 0.0981 0.1319
vn 0.0149 0.9770 0.2126
vn 0.0169 0.9667 0.2555
vn 0.8128 0.2469 0.5275
vn -0.8022 0.3394 0.4913
vn 0.2556 -0.7978 0.5461
vn 0.0383 0.0373 0.9986
vn 0.2373 -0.7911 0.5638
vn -0.8378 0.0895 0.5386
vn 0.9926 0.0533 -0.1093
vn 0.3202 -0.9099 0.2636
vn -0.9940 -0.1095 0.0066
vn -0.8173 0.0000 0.5762
vn 0.9894 0.0000 0.1452
vn 0.5920 0.7359 0.3286
vn 0.5291 0.4687 0.7074
vn -0.0270 0.6627 0.7484
vn 0.0513 -0.9984 -0.0223
vn 0.2481 0.9687 0.0000
vn -0.1366 0.9906 0.0000
vn 0.0000 -0.9980 -0.0632
vn -0.0043 -1.0000 0.0000
vn -0.9531 0.3014 -0.0256
vn 0.4041 0.8318 0.3804
vn 0.9865 0.0443 0.1577
vn 0.9263 0.1414 -0.3491
vn 0.9969 0.0789 0.0044
vn 0.9946 0.0285 0.1002
vn -1.0000 -0.0074 0.0000
vn -0.9995 -0.0101 0.0286
vn -0.8081 0.0724 0.5846
vn -0.8094 0.0721 -0.5828
vn 0.9986 0.0000 0.0527
vn 0.9924 0.1082 0.0592
vn 0.9992 0.0000 0.0409
vn 0.9977 0.0569 0.0380
vn 0.6664 0.0000 -0.7456
vn 0.5229 0.8524 0.0033
vn 0.5429 0.0000 0.8398
vn 0.0524 -0.9981 0.0317
vn 0.9030 0.1501 -0.4025
vn 0.9731 0.1954 -0.1219
vn 0.1178 0.5890 -0.7995
vn -0.0169 0.9438 -0.3302
vn 0.8050 0.3284 -0.4941
vn 0.2427 -0.8190 -0.5200
vn 0.1469 0.2881 -0.9463
vn -0.6285 0.2070 -0.7498
vn 0.1203 -0.8613 -0.4936
vn -0.9468 -0.0197 -0.3213
vn 0.8090 0.4667 -0.3573
vn 0.6913 0.3136 -0.6510
vn -0.0787 0.5314 -0.8434
vn 0.2337 -0.9329 -0.2739
vn 0.2236 0.9248 0.3078
vn -0.1307 0.9479 0.2906
vn 0.5203 0.2485 0.8170
vn -0.9625 0.2714 -0.0000
vn 0.3553 0.2082 -0.9113
vn 0.9869 0.1243 0.1032
vn 0.9840 0.1189 0.1330
vn -0.0670 0.9974 0.0266
vn -0.0749 0.9972 0.0082
vn 0.8376 0.2192 0.5004
vn 0.2427 -0.8190 0.5200
vn 0.1712 0.1646 0.9714
vn -0.7971 0.1154 0.5928
vn 0.1157 -0.8593 0.4982
vn -0.9694 0.0165 0.2450
vn 0.6146 0.7879 0.0379
vn 0.6606 0.5684 0.4904
vn -0.1027 0.7448 0.6593
vn 0.2337 -0.9329 0.2739
vn 0.1154 -0.9933 0.0000
vn -0.0353 -0.9990 0.0273
vn 0.4986 0.8225 0.2737
vn 0.9971 0.0762 0.0078
vn 0.9969 0.0789 0.0000
vn -0.9999 -0.0101 0.0068
vn -0.9997 -0.0233 0.0000
vn -0.8467 0.0816 0.5259
vn -0.8082 0.0717 -0.5845
vn 0.9881 0.0567 -0.1426
vn 0.9979 0.0601 0.0228
vn 0.3979 0.9120 -0.1000
vn 0.0000 -0.9988 0.0499
usemtl Rock.003
s off
f 11//1 5//1 2//1
f 4//2 20//2 54//2
f 22//3 3//3 21//3
f 6//4 8//4 3//4
f 2//5 6//5 4//5
f 14//6 21//6 55//6
f 1//7 11//7 10//7
f 5//8 8//8 7//8
f 5//9 1//9 9//9
f 1//10 8//10 9//10
f 6//11 5//11 7//11
f 2//12 18//12 11//12
f 10//13 3//13 1//13
f 16//14 10//14 19//14
f 2//15 12//15 17//15
f 4//16 22//16 20//16
f 13//17 22//17 15//17
f 22//18 14//18 15//18
f 10//19 18//19 19//19
f 19//20 48//20 16//20
f 13//21 47//21 45//21
f 14//22 47//22 15//22
f 34//23 64//23 52//23
f 17//24 50//24 18//24
f 55//25 46//25 14//25
f 12//26 66//26 58//26
f 18//27 51//27 19//27
f 33//28 24//28 27//28
f 52//29 42//29 26//29
f 44//30 25//30 28//30
f 30//31 28//31 25//31
f 26//32 27//32 24//32
f 36//33 56//33 43//33
f 33//34 23//34 32//34
f 30//35 27//35 29//35
f 27//36 31//36 23//36
f 31//37 25//37 23//37
f 28//38 29//38 27//38
f 40//39 24//39 33//39
f 23//40 43//40 32//40
f 38//41 41//41 32//41
f 24//42 39//42 34//42
f 44//43 26//43 42//43
f 37//44 42//44 35//44
f 37//45 43//45 44//45
f 40//46 32//46 41//46
f 48//20 41//20 38//20
f 35//47 47//47 37//47
f 47//48 36//48 37//48
f 49//49 59//49 61//49
f 50//50 39//50 40//50
f 36//51 57//51 56//51
f 53//52 64//52 65//52
f 51//27 40//27 41//27
f 42//53 52//53 35//53
f 54//54 20//54 13//54
f 54//55 45//55 53//55
f 53//56 35//56 52//56
f 56//57 48//57 38//57
f 55//58 48//58 57//58
f 43//59 38//59 32//59
f 21//60 16//60 55//60
f 59//61 60//61 61//61
f 66//62 60//62 58//62
f 63//63 60//63 62//63
f 60//64 64//64 62//64
f 12//65 59//65 17//65
f 53//66 66//66 54//66
f 34//67 63//67 62//67
f 49//68 63//68 39//68
f 54//69 12//69 4//69
f 12//70 2//70 4//70
f 22//71 6//71 3//71
f 6//72 7//72 8//72
f 2//73 5//73 6//73
f 1//74 5//74 11//74
f 5//75 9//75 8//75
f 1//76 3//76 8//76
f 2//77 17//77 18//77
f 10//78 21//78 3//78
f 4//79 6//79 22//79
f 13//80 20//80 22//80
f 22//81 21//81 14//81
f 10//82 11//82 18//82
f 19//20 51//20 48//20
f 13//83 15//83 47//83
f 14//84 46//84 47//84
f 34//85 62//85 64//85
f 17//24 49//24 50//24
f 55//86 57//86 46//86
f 12//87 54//87 66//87
f 18//27 50//27 51//27
f 24//88 34//88 26//88
f 34//89 52//89 26//89
f 44//90 43//90 25//90
f 30//91 29//91 28//91
f 26//92 28//92 27//92
f 33//93 27//93 23//93
f 30//94 31//94 27//94
f 31//95 30//95 25//95
f 40//96 39//96 24//96
f 23//97 25//97 43//97
f 44//98 28//98 26//98
f 37//99 44//99 42//99
f 37//100 36//100 43//100
f 40//101 33//101 32//101
f 48//20 51//20 41//20
f 35//47 45//47 47//47
f 47//48 46//48 36//48
f 49//102 17//102 59//102
f 50//103 49//103 39//103
f 36//86 46//86 57//86
f 53//104 52//104 64//104
f 51//27 50//27 40//27
f 54//105 13//105 45//105
f 53//106 45//106 35//106
f 56//107 57//107 48//107
f 55//108 16//108 48//108
f 43//109 56//109 38//109
f 21//110 10//110 16//110
f 59//61 58//61 60//61
f 66//111 65//111 60//111
f 63//63 61//63 60//63
f 60//112 65//112 64//112
f 12//65 58//65 59//65
f 53//113 65//113 66//113
f 34//67 39//67 63//67
f 49//114 61//114 63//114
