# Blender v3.6.1 OBJ File: 'FarmLevel.blend'
# www.blender.org
mtllib Fence2.mtl
o Fence2
v 2.502446 -0.458772 -0.030924
v 2.502446 0.413769 -0.030924
v 2.502446 -0.458772 0.030924
v 2.502446 0.413769 0.030924
v 2.292193 -0.458772 -0.030924
v 2.292193 0.413769 -0.030924
v 2.292193 -0.458772 0.030924
v 2.292193 0.413769 0.030924
v 2.397320 -0.458772 0.030924
v 2.397320 0.602342 0.030924
v 2.397320 -0.458772 -0.030924
v 2.397320 0.602342 -0.030924
v 2.123992 -0.458772 -0.030924
v 2.123992 0.413769 -0.030924
v 2.123992 -0.458772 0.030924
v 2.123992 0.413769 0.030924
v 1.913739 -0.458772 -0.030924
v 1.913739 0.413769 -0.030924
v 1.913739 -0.458772 0.030924
v 1.913739 0.413769 0.030924
v 2.018865 -0.458772 0.030924
v 2.018865 0.602342 0.030924
v 2.018865 -0.458772 -0.030924
v 2.018865 0.602342 -0.030924
v 1.745538 -0.458772 -0.030924
v 1.745538 0.413769 -0.030924
v 1.745537 -0.458772 0.030924
v 1.745537 0.413769 0.030924
v 1.535285 -0.458772 -0.030924
v 1.535285 0.413769 -0.030924
v 1.535285 -0.458772 0.030924
v 1.535285 0.413769 0.030924
v 1.640411 -0.458772 0.030924
v 1.640411 0.602342 0.030924
v 1.640411 -0.458772 -0.030924
v 1.640411 0.602342 -0.030924
v 1.367083 -0.458772 -0.030924
v 1.367083 0.413769 -0.030924
v 1.367083 -0.458772 0.030924
v 1.367083 0.413769 0.030924
v 1.156831 -0.458772 -0.030924
v 1.156831 0.413769 -0.030924
v 1.156831 -0.458772 0.030924
v 1.156831 0.413769 0.030924
v 1.261957 -0.458772 0.030924
v 1.261957 0.602342 0.030924
v 1.261957 -0.458772 -0.030924
v 1.261957 0.602342 -0.030924
v 0.988629 -0.458772 -0.030924
v 0.988629 0.413769 -0.030924
v 0.988629 -0.458772 0.030924
v 0.988629 0.413769 0.030924
v 0.778377 -0.458772 -0.030924
v 0.778377 0.413769 -0.030924
v 0.778377 -0.458772 0.030924
v 0.778377 0.413769 0.030924
v 0.883503 -0.458772 0.030924
v 0.883503 0.602342 0.030924
v 0.883503 -0.458772 -0.030924
v 0.883503 0.602342 -0.030924
v 0.610175 -0.458772 -0.030924
v 0.610175 0.413769 -0.030924
v 0.610175 -0.458772 0.030924
v 0.610175 0.413769 0.030924
v 0.399922 -0.458772 -0.030924
v 0.399922 0.413769 -0.030924
v 0.399922 -0.458772 0.030924
v 0.399922 0.413769 0.030924
v 0.505049 -0.458772 0.030924
v 0.505049 0.602342 0.030924
v 0.505049 -0.458772 -0.030924
v 0.505049 0.602342 -0.030924
v -2.502446 -0.458772 -0.030924
v -2.502446 0.413769 -0.030924
v -2.502446 -0.458772 0.030924
v -2.502446 0.413769 0.030924
v -2.292193 -0.458772 -0.030924
v -2.292193 0.413769 -0.030924
v -2.292193 -0.458772 0.030924
v -2.292193 0.413769 0.030924
v -2.397320 -0.458772 0.030924
v -2.397320 0.602342 0.030924
v -2.397320 -0.458772 -0.030924
v -2.397320 0.602342 -0.030924
v -2.123992 -0.458772 -0.030924
v -2.123992 0.413769 -0.030924
v -2.123992 -0.458772 0.030924
v -2.123992 0.413769 0.030924
v -1.913739 -0.458772 -0.030924
v -1.913739 0.413769 -0.030924
v -1.913739 -0.458772 0.030924
v -1.913739 0.413769 0.030924
v -2.018865 -0.458772 0.030924
v -2.018865 0.602342 0.030924
v -2.018865 -0.458772 -0.030924
v -2.018865 0.602342 -0.030924
v -1.745537 -0.458772 -0.030924
v -1.745537 0.413769 -0.030924
v -1.745537 -0.458772 0.030924
v -1.745537 0.413769 0.030924
v -1.535285 -0.458772 -0.030924
v -1.535285 0.413769 -0.030924
v -1.535285 -0.458772 0.030924
v -1.535285 0.413769 0.030924
v -1.640411 -0.458772 0.030924
v -1.640411 0.602342 0.030924
v -1.640411 -0.458772 -0.030924
v -1.640411 0.602342 -0.030924
v -1.367083 -0.458772 -0.030924
v -1.367083 0.413769 -0.030924
v -1.367083 -0.458772 0.030924
v -1.367083 0.413769 0.030924
v -1.156831 -0.458772 -0.030924
v -1.156831 0.413769 -0.030924
v -1.156831 -0.458772 0.030924
v -1.156831 0.413769 0.030924
v -1.261957 -0.458772 0.030924
v -1.261957 0.602342 0.030924
v -1.261957 -0.458772 -0.030924
v -1.261957 0.602342 -0.030924
v -0.988629 -0.458772 -0.030924
v -0.988629 0.413769 -0.030924
v -0.988629 -0.458772 0.030924
v -0.988629 0.413769 0.030924
v -0.778377 -0.458772 -0.030924
v -0.778377 0.413769 -0.030924
v -0.778377 -0.458772 0.030924
v -0.778377 0.413769 0.030924
v -0.883503 -0.458772 0.030924
v -0.883503 0.602342 0.030924
v -0.883503 -0.458772 -0.030924
v -0.883503 0.602342 -0.030924
v -0.610175 -0.458772 -0.030924
v -0.610175 0.413769 -0.030924
v -0.610175 -0.458772 0.030924
v -0.610175 0.413769 0.030924
v -0.399922 -0.458772 -0.030924
v -0.399922 0.413769 -0.030924
v -0.399922 -0.458772 0.030924
v -0.399922 0.413769 0.030924
v -0.505049 -0.458772 0.030924
v -0.505049 0.602342 0.030924
v -0.505049 -0.458772 -0.030924
v -0.505049 0.602342 -0.030924
v 2.945063 -0.571033 -0.082752
v 2.945063 0.526030 -0.082752
v 2.945063 -0.571033 0.082753
v 2.945063 0.526030 0.082753
v 2.777726 -0.571033 -0.082752
v 2.777726 0.526030 -0.082752
v 2.777726 -0.571033 0.082753
v 2.777726 0.526030 0.082753
v 0.084498 0.526030 0.082753
v 0.084498 -0.571033 0.082753
v 0.084498 0.526030 -0.082753
v 0.084498 -0.571033 -0.082753
v 2.941604 -0.155357 -0.035312
v 2.941604 -0.155357 0.035313
v 2.941604 -0.364383 -0.035312
v 2.941604 -0.364383 0.035313
v 2.941604 0.309757 -0.035312
v 2.941604 0.309757 0.035313
v 2.941604 0.100731 -0.035312
v 2.941604 0.100731 0.035313
v -2.945063 -0.571033 -0.082753
v -2.945063 0.526030 -0.082753
v -2.945063 -0.571033 0.082753
v -2.945063 0.526030 0.082753
v -2.777726 -0.571033 -0.082753
v -2.777726 0.526030 -0.082753
v -2.777726 -0.571033 0.082753
v -2.777726 0.526030 0.082753
v -0.084498 0.526030 0.082753
v -0.084498 -0.571033 0.082753
v -0.084498 0.526030 -0.082753
v -0.084498 -0.571033 -0.082753
v -2.941604 -0.155357 -0.035313
v 0.000000 -0.155357 -0.050155
v -2.941604 -0.155357 0.035312
v 0.000000 -0.155357 0.050155
v -2.941604 -0.364383 -0.035313
v 0.000000 -0.364383 -0.050155
v -2.941604 -0.364383 0.035312
v 0.000000 -0.364383 0.050155
v -2.941604 0.309757 -0.035313
v 0.000000 0.309757 -0.050155
v -2.941604 0.309757 0.035312
v 0.000000 0.309757 0.050155
v -2.941604 0.100731 -0.035313
v 0.000000 0.100731 -0.050155
v -2.941604 0.100731 0.035312
v 0.000000 0.100731 0.050155
v 0.000000 0.526030 -0.082753
v 0.000000 -0.571033 -0.082753
v 0.000000 0.526030 0.082753
v 0.000000 -0.571033 0.082753
vn 1.0000 0.0000 0.0000
vn 0.0000 0.0000 1.0000
vn -1.0000 0.0000 0.0000
vn 0.0000 0.0000 -1.0000
vn 0.0000 -1.0000 0.0000
vn 0.8734 0.4869 0.0000
vn -0.8734 0.4869 0.0000
vn 0.0000 1.0000 0.0000
vn 0.0050 0.0000 1.0000
vn 0.0050 0.0000 -1.0000
vn -0.0050 0.0000 1.0000
vn -0.0050 0.0000 -1.0000
usemtl Brown.013
s off
f 2//1 3//1 1//1
f 9//2 8//2 7//2
f 8//3 5//3 7//3
f 11//4 2//4 1//4
f 7//5 11//5 9//5
f 4//6 12//6 10//6
f 10//7 6//7 8//7
f 9//5 1//5 3//5
f 6//4 11//4 5//4
f 4//2 9//2 3//2
f 14//1 15//1 13//1
f 21//2 20//2 19//2
f 20//3 17//3 19//3
f 23//4 14//4 13//4
f 19//5 23//5 21//5
f 16//6 24//6 22//6
f 22//7 18//7 20//7
f 21//5 13//5 15//5
f 18//4 23//4 17//4
f 16//2 21//2 15//2
f 26//1 27//1 25//1
f 33//2 32//2 31//2
f 32//3 29//3 31//3
f 35//4 26//4 25//4
f 31//5 35//5 33//5
f 28//6 36//6 34//6
f 34//7 30//7 32//7
f 27//5 35//5 25//5
f 30//4 35//4 29//4
f 28//2 33//2 27//2
f 38//1 39//1 37//1
f 45//2 44//2 43//2
f 44//3 41//3 43//3
f 47//4 38//4 37//4
f 43//5 47//5 45//5
f 40//6 48//6 46//6
f 46//7 42//7 44//7
f 45//5 37//5 39//5
f 42//4 47//4 41//4
f 40//2 45//2 39//2
f 50//1 51//1 49//1
f 57//2 56//2 55//2
f 56//3 53//3 55//3
f 59//4 50//4 49//4
f 55//5 59//5 57//5
f 52//6 60//6 58//6
f 58//7 54//7 56//7
f 57//5 49//5 51//5
f 54//4 59//4 53//4
f 52//2 57//2 51//2
f 62//1 63//1 61//1
f 69//2 68//2 67//2
f 68//3 65//3 67//3
f 71//4 62//4 61//4
f 67//5 71//5 69//5
f 64//6 72//6 70//6
f 70//7 66//7 68//7
f 69//5 61//5 63//5
f 66//4 71//4 65//4
f 64//2 69//2 63//2
f 75//3 74//3 73//3
f 81//2 80//2 82//2
f 77//1 80//1 79//1
f 83//4 74//4 84//4
f 83//5 79//5 81//5
f 84//7 76//7 82//7
f 78//6 82//6 80//6
f 73//5 81//5 75//5
f 83//4 78//4 77//4
f 81//2 76//2 75//2
f 87//3 86//3 85//3
f 93//2 92//2 94//2
f 89//1 92//1 91//1
f 95//4 86//4 96//4
f 95//5 91//5 93//5
f 96//7 88//7 94//7
f 90//6 94//6 92//6
f 85//5 93//5 87//5
f 95//4 90//4 89//4
f 93//2 88//2 87//2
f 99//3 98//3 97//3
f 105//2 104//2 106//2
f 101//1 104//1 103//1
f 107//4 98//4 108//4
f 107//5 103//5 105//5
f 108//7 100//7 106//7
f 102//6 106//6 104//6
f 97//5 105//5 99//5
f 107//4 102//4 101//4
f 105//2 100//2 99//2
f 111//3 110//3 109//3
f 117//2 116//2 118//2
f 113//1 116//1 115//1
f 119//4 110//4 120//4
f 119//5 115//5 117//5
f 120//7 112//7 118//7
f 114//6 118//6 116//6
f 109//5 117//5 111//5
f 119//4 114//4 113//4
f 117//2 112//2 111//2
f 123//3 122//3 121//3
f 129//2 128//2 130//2
f 125//1 128//1 127//1
f 131//4 122//4 132//4
f 131//5 127//5 129//5
f 132//7 124//7 130//7
f 126//6 130//6 128//6
f 121//5 129//5 123//5
f 131//4 126//4 125//4
f 129//2 124//2 123//2
f 135//3 134//3 133//3
f 141//2 140//2 142//2
f 137//1 140//1 139//1
f 143//4 134//4 144//4
f 143//5 139//5 141//5
f 144//7 136//7 142//7
f 138//6 142//6 140//6
f 133//5 141//5 135//5
f 143//4 138//4 137//4
f 141//2 136//2 135//2
f 146//1 147//1 145//1
f 148//2 151//2 147//2
f 152//3 149//3 151//3
f 150//4 145//4 149//4
f 151//5 145//5 147//5
f 148//8 150//8 152//8
f 153//8 193//8 195//8
f 193//4 156//4 194//4
f 178//8 158//8 157//8
f 180//9 160//9 158//9
f 184//5 159//5 160//5
f 182//10 157//10 159//10
f 160//1 157//1 158//1
f 186//8 162//8 161//8
f 188//9 164//9 162//9
f 192//5 163//5 164//5
f 190//10 161//10 163//10
f 164//1 161//1 162//1
f 155//1 154//1 156//1
f 153//2 196//2 154//2
f 196//5 156//5 154//5
f 167//3 166//3 165//3
f 171//2 168//2 167//2
f 169//1 172//1 171//1
f 165//4 170//4 169//4
f 165//5 171//5 167//5
f 170//8 168//8 172//8
f 193//8 173//8 195//8
f 176//4 193//4 194//4
f 179//8 178//8 177//8
f 183//11 180//11 179//11
f 181//5 184//5 183//5
f 177//12 182//12 181//12
f 177//3 183//3 179//3
f 187//8 186//8 185//8
f 191//11 188//11 187//11
f 189//5 192//5 191//5
f 185//12 190//12 189//12
f 185//3 191//3 187//3
f 174//3 175//3 176//3
f 196//2 173//2 174//2
f 176//5 196//5 174//5
f 2//1 4//1 3//1
f 9//2 10//2 8//2
f 8//3 6//3 5//3
f 11//4 12//4 2//4
f 7//5 5//5 11//5
f 4//6 2//6 12//6
f 10//7 12//7 6//7
f 9//5 11//5 1//5
f 6//4 12//4 11//4
f 4//2 10//2 9//2
f 14//1 16//1 15//1
f 21//2 22//2 20//2
f 20//3 18//3 17//3
f 23//4 24//4 14//4
f 19//5 17//5 23//5
f 16//6 14//6 24//6
f 22//7 24//7 18//7
f 21//5 23//5 13//5
f 18//4 24//4 23//4
f 16//2 22//2 21//2
f 26//1 28//1 27//1
f 33//2 34//2 32//2
f 32//3 30//3 29//3
f 35//4 36//4 26//4
f 31//5 29//5 35//5
f 28//6 26//6 36//6
f 34//7 36//7 30//7
f 27//5 33//5 35//5
f 30//4 36//4 35//4
f 28//2 34//2 33//2
f 38//1 40//1 39//1
f 45//2 46//2 44//2
f 44//3 42//3 41//3
f 47//4 48//4 38//4
f 43//5 41//5 47//5
f 40//6 38//6 48//6
f 46//7 48//7 42//7
f 45//5 47//5 37//5
f 42//4 48//4 47//4
f 40//2 46//2 45//2
f 50//1 52//1 51//1
f 57//2 58//2 56//2
f 56//3 54//3 53//3
f 59//4 60//4 50//4
f 55//5 53//5 59//5
f 52//6 50//6 60//6
f 58//7 60//7 54//7
f 57//5 59//5 49//5
f 54//4 60//4 59//4
f 52//2 58//2 57//2
f 62//1 64//1 63//1
f 69//2 70//2 68//2
f 68//3 66//3 65//3
f 71//4 72//4 62//4
f 67//5 65//5 71//5
f 64//6 62//6 72//6
f 70//7 72//7 66//7
f 69//5 71//5 61//5
f 66//4 72//4 71//4
f 64//2 70//2 69//2
f 75//3 76//3 74//3
f 81//2 79//2 80//2
f 77//1 78//1 80//1
f 83//4 73//4 74//4
f 83//5 77//5 79//5
f 84//7 74//7 76//7
f 78//6 84//6 82//6
f 73//5 83//5 81//5
f 83//4 84//4 78//4
f 81//2 82//2 76//2
f 87//3 88//3 86//3
f 93//2 91//2 92//2
f 89//1 90//1 92//1
f 95//4 85//4 86//4
f 95//5 89//5 91//5
f 96//7 86//7 88//7
f 90//6 96//6 94//6
f 85//5 95//5 93//5
f 95//4 96//4 90//4
f 93//2 94//2 88//2
f 99//3 100//3 98//3
f 105//2 103//2 104//2
f 101//1 102//1 104//1
f 107//4 97//4 98//4
f 107//5 101//5 103//5
f 108//7 98//7 100//7
f 102//6 108//6 106//6
f 97//5 107//5 105//5
f 107//4 108//4 102//4
f 105//2 106//2 100//2
f 111//3 112//3 110//3
f 117//2 115//2 116//2
f 113//1 114//1 116//1
f 119//4 109//4 110//4
f 119//5 113//5 115//5
f 120//7 110//7 112//7
f 114//6 120//6 118//6
f 109//5 119//5 117//5
f 119//4 120//4 114//4
f 117//2 118//2 112//2
f 123//3 124//3 122//3
f 129//2 127//2 128//2
f 125//1 126//1 128//1
f 131//4 121//4 122//4
f 131//5 125//5 127//5
f 132//7 122//7 124//7
f 126//6 132//6 130//6
f 121//5 131//5 129//5
f 131//4 132//4 126//4
f 129//2 130//2 124//2
f 135//3 136//3 134//3
f 141//2 139//2 140//2
f 137//1 138//1 140//1
f 143//4 133//4 134//4
f 143//5 137//5 139//5
f 144//7 134//7 136//7
f 138//6 144//6 142//6
f 133//5 143//5 141//5
f 143//4 144//4 138//4
f 141//2 142//2 136//2
f 146//1 148//1 147//1
f 148//2 152//2 151//2
f 152//3 150//3 149//3
f 150//4 146//4 145//4
f 151//5 149//5 145//5
f 148//8 146//8 150//8
f 153//8 155//8 193//8
f 193//4 155//4 156//4
f 178//8 180//8 158//8
f 180//9 184//9 160//9
f 184//5 182//5 159//5
f 182//10 178//10 157//10
f 160//1 159//1 157//1
f 186//8 188//8 162//8
f 188//9 192//9 164//9
f 192//5 190//5 163//5
f 190//10 186//10 161//10
f 164//1 163//1 161//1
f 155//1 153//1 154//1
f 153//2 195//2 196//2
f 196//5 194//5 156//5
f 167//3 168//3 166//3
f 171//2 172//2 168//2
f 169//1 170//1 172//1
f 165//4 166//4 170//4
f 165//5 169//5 171//5
f 170//8 166//8 168//8
f 193//8 175//8 173//8
f 176//4 175//4 193//4
f 179//8 180//8 178//8
f 183//11 184//11 180//11
f 181//5 182//5 184//5
f 177//12 178//12 182//12
f 177//3 181//3 183//3
f 187//8 188//8 186//8
f 191//11 192//11 188//11
f 189//5 190//5 192//5
f 185//12 186//12 190//12
f 185//3 189//3 191//3
f 174//3 173//3 175//3
f 196//2 195//2 173//2
f 176//5 194//5 196//5
