# Blender v3.6.1 OBJ File: 'NatureLevel.blend'
# www.blender.org
mtllib Grass_Short.mtl
o Grass_Short
v -0.134580 0.224407 -0.237296
v -0.114435 -0.005342 -0.249623
v -0.122479 0.224407 -0.208855
v -0.099628 -0.005342 -0.214821
v -0.107032 0.335756 -0.232222
v 0.065000 0.161579 -0.061565
v 0.088063 -0.005342 -0.056479
v 0.053998 0.161579 -0.032681
v 0.074600 -0.005342 -0.021135
v 0.081332 0.232197 -0.038807
v -0.116744 0.224407 -0.136483
v -0.112951 -0.005342 -0.113173
v -0.147649 0.224407 -0.136038
v -0.150768 -0.005342 -0.112628
v -0.131860 0.335756 -0.112900
v 0.082511 0.287886 0.155705
v 0.073018 -0.005342 0.177330
v 0.056333 0.287886 0.139273
v 0.040985 -0.005342 0.157222
v 0.057002 0.399234 0.167276
v 0.113398 0.161579 -0.136659
v 0.090006 -0.005342 -0.133409
v 0.113672 0.161579 -0.167566
v 0.090341 -0.005342 -0.171229
v 0.090174 0.232197 -0.152319
v -0.017949 0.224407 -0.065588
v -0.033244 -0.005342 -0.083582
v 0.008277 0.224407 -0.081944
v -0.001153 -0.005342 -0.103596
v -0.017199 0.335756 -0.093590
v -0.150625 0.161579 -0.001048
v -0.173848 -0.005342 -0.005341
v -0.140619 0.161579 -0.030292
v -0.161604 -0.005342 -0.041125
v -0.167726 0.232197 -0.023233
v -0.041698 0.118158 0.011509
v -0.051155 -0.005342 0.033150
v -0.067904 0.117458 -0.004879
v -0.083222 -0.005342 0.013096
v -0.067188 0.228806 0.023123
v 0.125207 0.270594 0.071288
v 0.112934 -0.005342 0.091466
v 0.101436 0.270594 0.051534
v 0.083846 -0.005342 0.067294
v 0.098390 0.381942 0.079380
v 0.026136 0.055330 -0.168702
v 0.013863 -0.005342 -0.148525
v 0.002364 0.055330 -0.188456
v -0.015225 -0.005342 -0.172697
v -0.000681 0.125948 -0.160611
v -0.123121 0.118158 0.100874
v -0.141935 -0.005342 0.086598
v -0.101035 0.118158 0.079251
v -0.114910 -0.005342 0.060139
v -0.128422 0.229507 0.073369
v -0.030577 0.118158 0.134596
v -0.054193 -0.005342 0.134429
v -0.025838 0.118158 0.104053
v -0.048394 -0.005342 0.097056
v -0.051294 0.229507 0.115742
v -0.117386 0.224338 -0.244611
v -0.097251 -0.005125 -0.256934
v -0.105285 0.224338 -0.216170
v -0.082444 -0.005125 -0.222132
v -0.089880 0.335308 -0.239519
v 0.082179 0.161490 -0.068562
v 0.105206 -0.004931 -0.063461
v 0.071164 0.161324 -0.039672
v 0.091744 -0.004931 -0.028118
v 0.098311 0.231233 -0.045723
v -0.132871 0.224103 -0.128859
v -0.129036 -0.004795 -0.105568
v -0.163790 0.224242 -0.128406
v -0.166853 -0.004795 -0.105023
v -0.147752 0.334640 -0.105387
v 0.065468 0.287767 0.163183
v 0.055987 -0.005078 0.184802
v 0.039288 0.287817 0.146752
v 0.023954 -0.005078 0.164695
v 0.040018 0.398691 0.174728
v 0.096180 0.161506 -0.129475
v 0.072810 -0.005017 -0.126235
v 0.096458 0.161425 -0.160383
v 0.073145 -0.005017 -0.164054
v 0.073081 0.231432 -0.145187
v -0.031869 0.224028 -0.061284
v -0.046986 -0.004266 -0.079334
v -0.005607 0.223816 -0.077652
v -0.014894 -0.004266 -0.099348
v -0.030334 0.333632 -0.089528
v -0.167812 0.161493 0.005973
v -0.191003 -0.004943 0.001667
v -0.157795 0.161336 -0.023275
v -0.178759 -0.004943 -0.034117
v -0.184726 0.231262 -0.016288
v -0.058741 0.118039 0.018988
v -0.068186 -0.005078 0.040623
v -0.084948 0.117389 0.002600
v -0.100252 -0.005078 0.020569
v -0.084171 0.228263 0.030575
v 0.108112 0.270492 0.078730
v 0.095849 -0.005098 0.098902
v 0.084339 0.270530 0.058976
v 0.066761 -0.005098 0.074731
v 0.081346 0.381440 0.086799
v 0.009045 0.055162 -0.161263
v -0.003210 -0.005007 -0.141093
v -0.014732 0.055256 -0.181014
v -0.032299 -0.005007 -0.165265
v -0.017646 0.125160 -0.153227
v -0.139755 0.117986 0.107156
v -0.158509 -0.004776 0.092858
v -0.117655 0.117843 0.085528
v -0.131484 -0.004776 0.066399
v -0.144784 0.228353 0.079548
v -0.047790 0.118092 0.141717
v -0.071393 -0.005087 0.141545
v -0.043050 0.118047 0.111174
v -0.065594 -0.005087 0.104171
v -0.068449 0.228982 0.122839
vn -0.9155 -0.1012 0.3895
vn -0.9006 0.2053 0.3832
vn -0.9255 -0.1386 -0.3525
vn -0.8872 0.3141 -0.3379
vn -0.0143 -0.1012 -0.9948
vn -0.0141 0.2053 -0.9786
vn 0.5300 -0.0794 -0.8443
vn 0.5203 0.2053 -0.8289
vn 0.9903 -0.1386 0.0088
vn 0.9494 0.3141 0.0084
vn 0.5265 -0.1012 0.8442
vn 0.5179 0.2053 0.8304
vn 0.9370 -0.1386 0.3206
vn 0.8983 0.3141 0.3073
vn 0.5245 -0.1858 -0.8309
vn 0.5149 0.2060 -0.8321
vn 0.6369 -0.0844 -0.7664
vn 0.6255 0.2053 -0.7527
vn 0.5964 -0.3593 -0.7177
vn 0.6068 0.3141 -0.7302
vn 0.6874 -0.1859 0.7021
vn 0.6847 0.2053 0.6993
vn 0.9710 -0.1859 0.1507
vn 0.9671 0.2053 0.1501
vn 0.9154 0.1012 -0.3895
vn 0.9005 -0.2056 -0.3831
vn 0.9251 0.1388 0.3535
vn 0.8873 -0.3154 0.3365
vn 0.0143 0.1015 0.9947
vn 0.0134 -0.2060 0.9785
vn -0.5300 0.0795 0.8443
vn -0.5205 -0.2057 0.8287
vn -0.9903 0.1388 -0.0093
vn -0.9490 -0.3152 -0.0077
vn -0.5256 0.1016 -0.8446
vn -0.5187 -0.2065 -0.8296
vn -0.9367 0.1388 -0.3215
vn -0.8983 -0.3154 -0.3060
vn -0.5242 0.1862 0.8310
vn -0.5151 -0.2063 0.8319
vn -0.6368 0.0844 0.7664
vn -0.6256 -0.2057 0.7525
vn -0.5958 0.3617 0.7170
vn -0.6071 -0.3152 0.7294
vn -0.6865 0.1867 -0.7027
vn -0.6851 -0.2060 -0.6987
vn -0.9708 0.1862 -0.1509
vn -0.9671 -0.2057 -0.1498
vn -0.3916 0.0150 -0.9200
vn 0.0107 -0.9999 -0.0045
vn 0.3915 0.0150 0.9201
vn -0.3873 0.1374 -0.9117
vn 0.3908 0.1373 0.9102
vn -0.3743 -0.0801 -0.9238
vn 0.0284 -0.9995 0.0108
vn 0.3763 0.1101 0.9199
vn -0.3504 0.3597 -0.8648
vn 0.3733 -0.0648 0.9255
vn 0.4281 0.0986 0.8983
vn 0.0011 -0.9973 0.0740
vn -0.4252 -0.0860 -0.9010
vn 0.4257 -0.1318 0.8952
vn -0.4285 0.2417 -0.8706
vn 0.4019 0.0545 0.9141
vn -0.0091 -0.9999 0.0145
vn -0.4014 -0.0350 -0.9152
vn 0.4018 -0.0031 0.9157
vn -0.3974 0.2270 -0.8891
vn 0.3842 -0.0360 0.9225
vn -0.0190 -0.9998 -0.0002
vn -0.3846 0.0739 -0.9201
vn 0.3644 0.3142 0.8766
vn -0.3868 0.0704 -0.9195
vn 0.2873 -0.0944 0.9532
vn -0.1490 -0.9595 -0.2389
vn -0.2978 0.1024 -0.9491
vn 0.2812 0.2358 0.9302
vn -0.2674 -0.1629 -0.9497
vn 0.3756 -0.0762 0.9237
vn -0.0270 -0.9996 -0.0092
vn -0.3773 0.1071 -0.9199
vn 0.3517 0.3570 0.8653
vn -0.3752 -0.0520 -0.9255
vn 0.4001 0.1288 0.9074
vn -0.0091 -0.9999 0.0146
vn -0.4001 -0.0837 -0.9126
vn 0.4019 -0.0035 0.9157
vn -0.3974 0.2271 -0.8891
vn 0.3992 0.0493 0.9155
vn -0.0094 -0.9999 0.0113
vn -0.3989 -0.0269 -0.9166
vn 0.3988 0.0294 0.9166
vn -0.3952 0.2135 -0.8935
vn 0.3930 0.2193 0.8930
vn -0.0129 -0.9998 0.0155
vn -0.3957 -0.1217 -0.9103
vn 0.3983 0.0463 0.9161
vn -0.3900 0.3261 -0.8612
vn 0.3440 -0.1603 0.9252
vn -0.0554 -0.9969 -0.0566
vn -0.3505 0.1816 -0.9188
vn 0.3405 0.2427 0.9084
vn -0.3418 -0.1342 -0.9301
vn 0.3803 -0.0742 0.9219
vn -0.0158 -0.9999 -0.0025
vn -0.3801 0.1214 -0.9169
vn 0.3720 0.2218 0.9013
vn -0.3825 0.0096 -0.9239
vn 0.5209 -0.1869 -0.8329
vn 0.6368 -0.0844 -0.7664
vn 0.9254 0.1391 0.3525
vn 0.0150 0.1014 0.9947
vn -0.5298 0.0795 0.8444
vn -0.9903 0.1389 -0.0088
vn -0.5264 0.1017 -0.8441
vn -0.9370 0.1390 -0.3206
vn -0.5209 0.1873 0.8328
vn -0.6367 0.0844 0.7664
vn -0.5950 0.3611 0.7180
vn -0.6872 0.1870 -0.7019
vn -0.9709 0.1863 -0.1506
vn -0.3914 0.0150 -0.9201
vn 0.3913 0.0150 0.9201
vn -0.3847 0.1372 -0.9128
vn 0.3882 0.1374 0.9113
vn -0.3764 -0.0801 -0.9230
vn 0.3727 0.1102 0.9214
vn -0.3339 0.3622 -0.8702
vn 0.3755 -0.0652 0.9245
vn 0.4238 0.0983 0.9004
vn -0.4282 -0.0861 -0.8996
vn 0.4312 -0.1315 0.8926
vn -0.4167 0.2432 -0.8759
vn 0.4009 0.0545 0.9145
vn -0.4020 -0.0350 -0.9150
vn 0.4019 -0.0031 0.9157
vn -0.3921 0.2266 -0.8916
vn 0.3849 -0.0360 0.9222
vn -0.3828 0.0739 -0.9209
vn 0.3535 0.3147 0.8809
vn -0.3847 0.0707 -0.9203
vn 0.2964 -0.0942 0.9504
vn -0.1490 -0.9596 -0.2389
vn -0.2866 0.1015 -0.9527
vn 0.2524 0.2344 0.9388
vn -0.2850 -0.1640 -0.9444
vn 0.3774 -0.0762 0.9229
vn -0.3739 0.1072 -0.9213
vn 0.3359 0.3592 0.8707
vn -0.3770 -0.0523 -0.9247
vn 0.3977 0.1287 0.9084
vn -0.4015 -0.0836 -0.9120
vn -0.3921 0.2267 -0.8915
vn 0.3984 0.0493 0.9159
vn -0.3993 -0.0269 -0.9164
vn 0.3982 0.0294 0.9168
vn -0.3906 0.2133 -0.8955
vn 0.3876 0.2194 0.8954
vn -0.3982 -0.1216 -0.9092
vn 0.3969 0.0461 0.9167
vn -0.3786 0.3253 -0.8665
vn 0.3502 -0.1600 0.9229
vn -0.3420 0.1824 -0.9218
vn 0.3279 0.2412 0.9134
vn -0.3479 -0.1346 -0.9278
vn 0.3815 -0.0742 0.9214
vn -0.3779 0.1214 -0.9179
vn 0.3669 0.2221 0.9033
vn -0.3823 0.0096 -0.9240
usemtl Green.024
s off
f 2//1 3//1 1//1
f 1//2 3//2 5//2
f 6//3 9//3 8//3
f 6//4 8//4 10//4
f 11//5 14//5 13//5
f 11//6 13//6 15//6
f 17//7 18//7 16//7
f 16//8 18//8 20//8
f 21//9 24//9 23//9
f 21//10 23//10 25//10
f 27//11 28//11 26//11
f 26//12 28//12 30//12
f 32//13 33//13 31//13
f 31//14 33//14 35//14
f 37//15 38//15 36//15
f 36//16 38//16 40//16
f 41//17 44//17 43//17
f 41//18 43//18 45//18
f 46//19 49//19 48//19
f 46//20 48//20 50//20
f 51//21 54//21 53//21
f 51//22 53//22 55//22
f 56//23 59//23 58//23
f 56//24 58//24 60//24
f 63//25 62//25 61//25
f 61//26 65//26 63//26
f 68//27 67//27 66//27
f 66//28 70//28 68//28
f 71//29 74//29 72//29
f 71//30 75//30 73//30
f 76//31 79//31 77//31
f 76//32 80//32 78//32
f 83//33 82//33 81//33
f 81//34 85//34 83//34
f 88//35 87//35 86//35
f 86//36 90//36 88//36
f 93//37 92//37 91//37
f 91//38 95//38 93//38
f 98//39 97//39 96//39
f 96//40 100//40 98//40
f 101//41 104//41 102//41
f 101//42 105//42 103//42
f 106//43 109//43 107//43
f 106//44 110//44 108//44
f 113//45 112//45 111//45
f 111//46 115//46 113//46
f 118//47 117//47 116//47
f 116//48 120//48 118//48
f 2//49 61//49 62//49
f 4//50 62//50 64//50
f 4//51 63//51 3//51
f 5//52 61//52 1//52
f 5//53 63//53 65//53
f 7//54 66//54 67//54
f 7//55 69//55 9//55
f 9//56 68//56 8//56
f 10//57 66//57 6//57
f 10//58 68//58 70//58
f 12//59 71//59 72//59
f 14//60 72//60 74//60
f 14//61 73//61 13//61
f 15//62 71//62 11//62
f 13//63 75//63 15//63
f 17//64 76//64 77//64
f 19//65 77//65 79//65
f 19//66 78//66 18//66
f 20//67 76//67 16//67
f 20//68 78//68 80//68
f 22//69 81//69 82//69
f 22//70 84//70 24//70
f 24//71 83//71 23//71
f 25//72 81//72 21//72
f 25//73 83//73 85//73
f 27//74 86//74 87//74
f 27//75 89//75 29//75
f 28//76 89//76 88//76
f 26//77 90//77 86//77
f 30//78 88//78 90//78
f 32//79 91//79 92//79
f 32//80 94//80 34//80
f 34//81 93//81 33//81
f 35//82 91//82 31//82
f 35//83 93//83 95//83
f 37//84 96//84 97//84
f 39//85 97//85 99//85
f 39//86 98//86 38//86
f 40//87 96//87 36//87
f 40//88 98//88 100//88
f 42//89 101//89 102//89
f 44//90 102//90 104//90
f 44//91 103//91 43//91
f 45//92 101//92 41//92
f 45//93 103//93 105//93
f 47//94 106//94 107//94
f 49//95 107//95 109//95
f 49//96 108//96 48//96
f 50//97 106//97 46//97
f 50//98 108//98 110//98
f 52//99 111//99 112//99
f 52//100 114//100 54//100
f 54//101 113//101 53//101
f 51//102 115//102 111//102
f 55//103 113//103 115//103
f 57//104 116//104 117//104
f 57//105 119//105 59//105
f 59//106 118//106 58//106
f 60//107 116//107 56//107
f 60//108 118//108 120//108
f 2//1 4//1 3//1
f 6//3 7//3 9//3
f 11//5 12//5 14//5
f 17//7 19//7 18//7
f 21//9 22//9 24//9
f 27//11 29//11 28//11
f 32//13 34//13 33//13
f 37//109 39//109 38//109
f 41//110 42//110 44//110
f 46//19 47//19 49//19
f 51//21 52//21 54//21
f 56//23 57//23 59//23
f 63//25 64//25 62//25
f 68//111 69//111 67//111
f 71//112 73//112 74//112
f 76//113 78//113 79//113
f 83//114 84//114 82//114
f 88//115 89//115 87//115
f 93//116 94//116 92//116
f 98//117 99//117 97//117
f 101//118 103//118 104//118
f 106//119 108//119 109//119
f 113//120 114//120 112//120
f 118//121 119//121 117//121
f 2//122 1//122 61//122
f 4//50 2//50 62//50
f 4//123 64//123 63//123
f 5//124 65//124 61//124
f 5//125 3//125 63//125
f 7//126 6//126 66//126
f 7//55 67//55 69//55
f 9//127 69//127 68//127
f 10//128 70//128 66//128
f 10//129 8//129 68//129
f 12//130 11//130 71//130
f 14//60 12//60 72//60
f 14//131 74//131 73//131
f 15//132 75//132 71//132
f 13//133 73//133 75//133
f 17//134 16//134 76//134
f 19//65 17//65 77//65
f 19//135 79//135 78//135
f 20//136 80//136 76//136
f 20//137 18//137 78//137
f 22//138 21//138 81//138
f 22//70 82//70 84//70
f 24//139 84//139 83//139
f 25//140 85//140 81//140
f 25//141 23//141 83//141
f 27//142 26//142 86//142
f 27//143 87//143 89//143
f 28//144 29//144 89//144
f 26//145 30//145 90//145
f 30//146 28//146 88//146
f 32//147 31//147 91//147
f 32//80 92//80 94//80
f 34//148 94//148 93//148
f 35//149 95//149 91//149
f 35//150 33//150 93//150
f 37//151 36//151 96//151
f 39//85 37//85 97//85
f 39//152 99//152 98//152
f 40//87 100//87 96//87
f 40//153 38//153 98//153
f 42//154 41//154 101//154
f 44//90 42//90 102//90
f 44//155 104//155 103//155
f 45//156 105//156 101//156
f 45//157 43//157 103//157
f 47//158 46//158 106//158
f 49//95 47//95 107//95
f 49//159 109//159 108//159
f 50//160 110//160 106//160
f 50//161 48//161 108//161
f 52//162 51//162 111//162
f 52//100 112//100 114//100
f 54//163 114//163 113//163
f 51//164 55//164 115//164
f 55//165 53//165 113//165
f 57//166 56//166 116//166
f 57//105 117//105 119//105
f 59//167 119//167 118//167
f 60//168 120//168 116//168
f 60//169 58//169 118//169
