# Blender v3.6.1 OBJ File: 'NatureLevel.blend'
# www.blender.org
mtllib Plant_1.mtl
o Plant_1
v 0.005831 -0.011696 0.001863
v 0.579784 0.137139 0.027011
v 0.579171 0.137139 -0.037947
v 0.547718 0.222525 0.050921
v 0.547182 0.222893 -0.050580
v 0.607368 0.084456 -0.005731
v 0.118280 0.218001 -0.089253
v 0.131939 0.218001 0.089920
v 0.023222 0.101721 -0.324477
v -0.031411 0.101589 -0.325514
v 0.030124 0.161539 -0.280825
v -0.051899 0.161341 -0.282040
v -0.002707 0.066665 -0.367404
v -0.074032 0.181339 -0.156270
v 0.041994 0.181376 -0.154248
v -0.571423 0.137139 0.057761
v -0.561382 0.137139 0.121941
v -0.541771 0.222941 0.038913
v -0.527389 0.222941 0.130831
v -0.593959 0.084456 0.094162
v -0.179561 0.193402 0.147679
v -0.136284 0.218823 -0.091714
v 0.099122 0.179211 0.540000
v 0.152552 0.181479 0.529005
v -0.012541 0.297212 0.322122
v 0.130629 0.301388 0.304368
v 0.136556 0.141829 0.571338
v 0.091416 0.178601 0.160496
v -0.056830 0.184708 0.167514
v 0.009199 -0.017994 0.013845
v 0.378173 0.234504 0.454200
v 0.425676 0.234504 0.409889
v 0.338886 0.379360 0.446690
v 0.413396 0.379986 0.377762
v 0.420950 0.145127 0.452440
v 0.152334 0.371686 0.035272
v 0.029390 0.371686 0.166323
v 0.261665 0.174416 -0.193666
v 0.225542 0.174194 -0.234667
v 0.234125 0.275898 -0.159102
v 0.179641 0.275563 -0.220427
v 0.275823 0.114945 -0.241777
v 0.071924 0.309488 -0.151834
v 0.148771 0.309552 -0.064883
v -0.421788 0.234504 -0.374223
v -0.462350 0.234504 -0.323483
v -0.387863 0.380066 -0.365076
v -0.445957 0.380066 -0.292406
v -0.463855 0.145127 -0.366269
v -0.223536 0.329953 -0.024456
v -0.017728 0.373080 -0.154168
v -0.324768 0.305878 0.446003
v -0.280582 0.309727 0.477993
v -0.322609 0.242460 0.494775
v -0.050031 0.304844 0.184083
v -0.155301 0.315204 0.079469
v 0.004263 -0.022135 0.000151
v 0.565812 0.133969 0.027115
v 0.565204 0.133956 -0.037843
v 0.535943 0.216237 0.050811
v 0.535090 0.216927 -0.050671
v 0.593687 0.080682 -0.005602
v 0.129264 0.211029 -0.090010
v 0.142429 0.210641 0.089212
v 0.023036 0.095907 -0.312244
v -0.031598 0.095815 -0.313246
v 0.030009 0.152949 -0.272285
v -0.052008 0.152592 -0.273817
v -0.002884 0.059701 -0.356385
v -0.073917 0.171537 -0.161760
v 0.042115 0.171692 -0.160125
v -0.557624 0.133955 0.055602
v -0.547583 0.133955 0.119782
v -0.529830 0.216969 0.037045
v -0.515448 0.216969 0.128963
v -0.580442 0.080682 0.092047
v -0.190483 0.186587 0.145206
v -0.147452 0.212240 -0.094290
v 0.097187 0.173476 0.527848
v 0.150618 0.175734 0.516862
v -0.012110 0.287098 0.326373
v 0.130960 0.290996 0.307044
v 0.134635 0.135687 0.559572
v 0.091938 0.172135 0.172073
v -0.056323 0.178282 0.179134
v 0.008652 -0.028052 0.009364
v 0.368375 0.232549 0.443656
v 0.415878 0.232544 0.399346
v 0.330745 0.373582 0.437515
v 0.405230 0.374246 0.368564
v 0.411204 0.142804 0.441992
v 0.161448 0.366290 0.043967
v 0.038417 0.366154 0.174944
v 0.251486 0.170510 -0.184632
v 0.215356 0.170305 -0.225625
v 0.226378 0.268438 -0.152195
v 0.172036 0.267967 -0.213645
v 0.266082 0.110097 -0.233144
v 0.076553 0.299892 -0.155881
v 0.153599 0.300047 -0.069106
v -0.410545 0.232543 -0.365237
v -0.451108 0.232543 -0.314496
v -0.378280 0.374668 -0.356905
v -0.436315 0.374750 -0.284200
v -0.452694 0.142804 -0.357347
v -0.229594 0.324364 -0.035312
v -0.023735 0.367332 -0.164893
v -0.316264 0.302084 0.435299
v -0.272071 0.305948 0.467283
v -0.314249 0.238360 0.484174
v -0.059424 0.300386 0.193472
v -0.164668 0.310713 0.088854
v 0.118309 0.470109 0.282369
v 0.185855 0.473885 0.344333
v 0.324068 0.479259 0.218921
v 0.268321 0.476935 0.146012
v 0.187633 0.462855 0.344407
v 0.119934 0.459032 0.282797
v 0.269554 0.465902 0.146606
v 0.324708 0.468181 0.219838
v -0.175971 0.462056 -0.269285
v -0.263628 0.456159 -0.317042
v -0.369402 0.458898 -0.200413
v -0.315890 0.456319 -0.135969
v -0.263720 0.445310 -0.317695
v -0.175261 0.451665 -0.272348
v -0.315284 0.445239 -0.138336
v -0.368068 0.447739 -0.201902
v 0.305204 0.288606 0.127708
v 0.442093 0.281759 0.108313
v 0.442666 0.284340 -0.060162
v 0.306090 0.292874 -0.072502
v 0.440784 0.270885 0.106072
v 0.305034 0.277733 0.126526
v 0.305429 0.282031 -0.073298
v 0.441342 0.273287 -0.060066
v -0.210215 0.434007 0.168918
v -0.266659 0.436202 0.289723
v -0.178369 0.441539 0.364303
v -0.103375 0.438442 0.268513
v -0.268241 0.423025 0.294955
v -0.214398 0.423239 0.172644
v -0.106500 0.426782 0.271195
v -0.180905 0.427915 0.366890
v -0.326968 0.301380 -0.019459
v -0.419811 0.294838 0.009445
v -0.402257 0.294838 0.121639
v -0.314634 0.292047 0.125024
v -0.420372 0.283675 0.008305
v -0.328107 0.290914 -0.022295
v -0.316167 0.281093 0.123219
v -0.403117 0.283617 0.119937
vn 0.9358 0.3525 -0.0037
vn 0.2263 -0.4390 0.8695
vn -0.3724 0.9277 0.0284
vn 0.8837 0.4679 -0.0083
vn -0.8853 0.4602 0.0675
vn 0.0105 0.5907 -0.8069
vn 0.0102 0.7715 -0.6362
vn -0.0137 0.6302 0.7763
vn 0.0024 0.9877 -0.1566
vn -0.9250 0.3514 0.1447
vn -0.1913 -0.0765 -0.9785
vn 0.4460 0.8780 0.1739
vn -0.8732 0.4679 0.1366
vn 0.7940 0.5725 0.2043
vn -0.0401 -0.8795 -0.4742
vn 0.0054 0.8078 -0.5894
vn 0.1146 0.7031 0.7018
vn -0.0098 0.6429 -0.7659
vn 0.6620 0.2167 0.7175
vn -0.6404 -0.2506 0.7260
vn -0.4002 0.8360 -0.3754
vn 0.6511 0.2979 0.6980
vn -0.6975 0.2922 -0.6543
vn 0.6853 0.3962 -0.6110
vn 0.6089 0.5815 -0.5396
vn -0.6761 0.4316 0.5972
vn 0.1943 0.9657 -0.1724
vn -0.7626 0.2161 -0.6097
vn 0.5050 -0.3180 -0.8024
vn 0.1282 0.8622 0.4901
vn -0.7456 0.2979 -0.5961
vn 0.4347 0.3806 0.8162
vn -0.7962 -0.2961 -0.5276
vn -0.5350 0.5035 0.6784
vn 0.6534 0.4434 -0.6136
vn -0.9394 -0.3427 0.0056
vn -0.5041 -0.8635 -0.0142
vn -0.8839 -0.4675 0.0084
vn 0.8688 -0.4909 -0.0649
vn -0.0141 -0.5725 0.8198
vn -0.0104 -0.7701 0.6378
vn 0.0117 -0.6386 -0.7695
vn 0.0012 -0.9863 0.1647
vn 0.9280 -0.3432 -0.1452
vn 0.5037 -0.8603 -0.0783
vn 0.8733 -0.4675 -0.1366
vn -0.7824 -0.5885 -0.2036
vn -0.8950 -0.3311 0.2988
vn -0.0050 -0.8035 0.5953
vn -0.1146 -0.7029 -0.7020
vn 0.0080 -0.6647 0.7470
vn -0.6634 -0.2083 -0.7187
vn -0.3190 -0.8796 -0.3530
vn -0.6512 -0.2978 -0.6981
vn 0.6897 -0.3241 0.6475
vn -0.6928 -0.3805 0.6125
vn -0.6093 -0.5808 0.5399
vn 0.6721 -0.4395 -0.5960
vn -0.2035 -0.9610 0.1873
vn 0.7638 -0.2092 0.6106
vn 0.3921 -0.8418 0.3710
vn 0.7456 -0.2978 0.5961
vn -0.4295 -0.3934 -0.8128
vn 0.7521 -0.0149 0.6589
vn 0.4466 -0.7477 -0.4915
vn 0.5350 -0.5034 -0.6784
vn -0.6447 -0.4711 0.6020
vn 0.0649 -0.2544 0.9649
vn 0.4953 0.8686 0.0150
vn 0.0882 -0.0192 -0.9959
vn 0.0703 -0.1274 -0.9894
vn 0.0279 0.1512 -0.9881
vn 0.1378 -0.4698 0.8720
vn 0.1017 -0.4747 -0.8742
vn 0.3851 -0.9227 -0.0191
vn -0.1379 -0.2877 0.9478
vn 0.9952 -0.0935 -0.0293
vn 0.9907 -0.1025 -0.0898
vn -0.9619 -0.1807 -0.2050
vn 0.8952 -0.3832 -0.2278
vn -0.8739 -0.4346 -0.2179
vn -0.9779 0.0932 -0.1869
vn -0.1863 -0.1489 -0.9711
vn -0.4924 0.8669 0.0770
vn 0.1635 -0.1602 0.9734
vn 0.0836 -0.1414 0.9864
vn -0.1989 -0.0366 0.9793
vn -0.2630 -0.4698 -0.8427
vn 0.0280 -0.4751 0.8795
vn -0.4508 -0.8753 -0.1748
vn 0.9956 0.0078 -0.0930
vn -0.9676 0.0617 0.2449
vn -0.7932 -0.4770 0.3785
vn 0.9352 -0.3536 0.0184
vn 0.9767 -0.1656 -0.1365
vn -0.8003 0.2122 -0.5608
vn -0.8736 0.0519 0.4839
vn 0.9876 -0.0723 0.1394
vn 0.4304 -0.2087 0.8782
vn 0.3206 -0.1799 -0.9300
vn 0.9201 -0.0752 -0.3843
vn -0.9681 -0.2349 -0.0877
vn -0.7083 -0.1591 0.6877
vn 0.3061 0.8751 0.3748
vn 0.8825 0.0121 -0.4702
vn 0.7686 -0.0754 -0.6353
vn 0.6904 0.0004 -0.7234
vn -0.6539 -0.3264 0.6825
vn 0.7217 -0.3274 -0.6099
vn 0.4039 -0.8216 0.4023
vn -0.7398 -0.2123 0.6384
vn 0.6769 -0.0692 0.7328
vn 0.7232 -0.1217 0.6798
vn -0.5731 -0.1462 -0.8064
vn 0.7128 -0.3307 0.6185
vn -0.5392 -0.3591 -0.7618
vn -0.5074 0.1153 -0.8539
vn 0.6117 -0.0928 -0.7856
vn -0.3798 0.8502 -0.3645
vn -0.6771 -0.1763 0.7145
vn -0.6717 -0.0816 0.7364
vn -0.8340 -0.1352 0.5350
vn 0.5478 -0.3264 -0.7703
vn -0.6242 -0.3277 0.7093
vn -0.1301 -0.8608 -0.4921
vn 0.7321 -0.1375 0.6671
vn -0.4438 0.7625 0.4708
vn 0.0316 0.8856 0.4634
vn -0.7903 -0.3902 -0.4724
vn 0.7031 -0.2749 0.6558
vn -0.5741 -0.6369 0.5146
vn -0.6922 0.3248 -0.6445
vn -0.9798 0.1235 -0.1575
vn 0.5902 -0.0580 0.8052
vn -0.5879 -0.3023 0.7503
vn 0.8927 -0.1246 -0.4332
vn 0.3698 -0.3948 0.8411
vn -0.6529 -0.1773 -0.7364
vn 0.5691 0.6460 -0.5087
vn -0.0506 0.9987 -0.0057
vn 0.0511 -0.9987 0.0058
vn -0.6722 -0.0701 0.7370
vn 0.7923 0.0558 -0.6076
vn -0.7577 -0.0862 0.6469
vn -0.0576 0.9982 -0.0175
vn 0.0627 -0.9979 0.0176
vn 0.4445 0.2811 -0.8505
vn -0.7609 -0.1751 0.6248
vn 0.6498 0.2554 -0.7159
vn 0.0530 0.9984 0.0215
vn -0.0536 -0.9983 -0.0216
vn 0.1341 -0.1092 0.9849
vn 0.0888 -0.0193 -0.9959
vn -0.1817 -0.1035 0.9779
vn -0.0171 0.9995 -0.0262
vn 0.0246 -0.9997 0.0091
vn -0.8863 0.1998 -0.4178
vn 0.7845 -0.0685 0.6164
vn -0.7872 0.0949 -0.6094
vn -0.0489 0.9965 0.0685
vn 0.0544 -0.9959 -0.0717
vn -0.3033 0.2798 -0.9109
vn -0.0431 -0.1566 0.9867
vn -0.2485 0.2784 -0.9278
vn 0.9373 0.3483 -0.0088
vn 0.3863 -0.2306 0.8931
vn -0.3807 0.9245 0.0180
vn 0.0139 0.5884 -0.8085
vn -0.0001 0.9879 -0.1548
vn -0.9250 0.3515 0.1447
vn -0.3157 0.1121 -0.9422
vn 0.5896 0.8077 0.0018
vn -0.0608 -0.8772 -0.4762
vn -0.1006 0.7702 -0.6299
vn 0.6663 0.2140 0.7143
vn -0.5813 -0.0883 0.8089
vn -0.3981 0.8272 -0.3965
vn 0.6885 0.3942 -0.6087
vn 0.1894 0.9664 -0.1736
vn -0.7626 0.2160 -0.6097
vn 0.2928 0.0550 -0.9546
vn 0.4373 0.7532 0.4914
vn -0.9258 -0.0382 -0.3761
vn -0.9404 -0.3399 0.0089
vn -0.5151 -0.8571 -0.0015
vn -0.0128 -0.5735 0.8191
vn -0.0010 -0.9860 0.1665
vn 0.5040 -0.8601 -0.0789
vn -0.8300 0.1857 0.5259
vn 0.1071 -0.7613 0.6395
vn -0.6675 -0.2056 -0.7156
vn -0.3122 -0.8704 -0.3807
vn -0.6909 -0.3818 0.6139
vn -0.2082 -0.9601 0.1865
vn 0.7641 -0.2095 0.6102
vn 0.4465 -0.8204 0.3573
vn 0.7720 -0.0558 0.6332
vn 0.4336 -0.7433 -0.5093
vn 0.1129 -0.2284 0.9670
vn 0.5068 0.8621 0.0004
vn 0.0457 -0.0775 -0.9959
vn 0.0238 -0.1370 -0.9903
vn 0.0666 0.0690 -0.9954
vn 0.1144 -0.4756 0.8722
vn 0.1213 -0.4698 -0.8744
vn 0.3761 -0.9261 -0.0296
vn -0.4408 -0.0804 0.8940
vn 0.9950 -0.0769 -0.0639
vn 0.9916 0.0761 -0.1049
vn -0.9585 -0.2520 -0.1332
vn 0.8914 -0.4145 -0.1834
vn -0.8766 -0.4002 -0.2670
vn -0.9755 -0.1442 -0.1663
vn -0.2217 -0.1415 -0.9648
vn -0.4924 0.8669 0.0771
vn 0.1205 -0.0689 0.9903
vn 0.1192 -0.1489 0.9816
vn -0.2509 -0.1231 0.9601
vn -0.2420 -0.4751 -0.8460
vn 0.0070 -0.4698 0.8828
vn -0.6005 -0.7996 -0.0047
vn 0.9898 -0.0635 -0.1276
vn -0.9722 0.1843 0.1444
vn -0.7959 -0.4887 0.3574
vn 0.9372 -0.3477 0.0285
vn 0.9707 -0.0305 -0.2385
vn -0.2295 -0.2597 -0.9380
vn -0.9468 -0.1657 0.2759
vn 0.9868 -0.1556 0.0449
vn 0.1190 -0.5016 0.8569
vn 0.5788 0.0466 -0.8142
vn 0.9449 -0.2657 -0.1910
vn -0.8308 0.2094 -0.5157
vn -0.6905 -0.1506 0.7075
vn 0.3137 0.8838 0.3471
vn 0.7921 -0.2064 -0.5744
vn 0.7378 -0.0899 -0.6690
vn 0.6709 0.0351 -0.7407
vn -0.6609 -0.3279 0.6750
vn 0.7263 -0.3264 -0.6049
vn 0.4054 -0.8314 0.3799
vn 0.9983 -0.0332 -0.0473
vn 0.6940 -0.0561 0.7178
vn 0.7544 0.0946 0.6496
vn -0.6143 -0.1782 -0.7687
vn 0.6938 -0.3415 0.6341
vn -0.5194 -0.3470 -0.7809
vn -0.5519 -0.1754 -0.8153
vn 0.6147 -0.0941 -0.7831
vn -0.4358 0.8298 -0.3484
vn -0.6885 -0.1551 0.7085
vn -0.6318 -0.0981 0.7689
vn -0.8406 -0.1567 0.5185
vn 0.5543 -0.3276 -0.7651
vn -0.6307 -0.3264 0.7040
vn -0.4452 -0.7424 -0.5007
vn 0.7888 -0.0709 0.6106
vn -0.4250 0.7573 0.4959
vn 0.0583 0.8830 0.4657
vn -0.7825 -0.3943 -0.4819
vn 0.7010 -0.2736 0.6586
vn -0.5401 -0.5776 0.6121
vn 0.6187 -0.1853 -0.7635
vn -0.8010 -0.1410 -0.5819
vn 0.8409 -0.2577 0.4758
vn -0.6968 -0.4006 0.5950
vn 0.9883 0.0140 -0.1520
vn 0.7388 -0.2033 0.6426
vn 0.3243 0.3702 -0.8705
vn 0.5355 0.5935 -0.6008
vn -0.0400 0.9992 -0.0013
vn 0.0398 -0.9992 0.0011
vn -0.6664 -0.1025 0.7386
vn 0.7988 -0.0036 -0.6015
vn -0.7268 -0.1370 0.6731
vn 0.0365 0.9993 0.0097
vn -0.0348 -0.9993 -0.0104
vn 0.4528 0.0497 -0.8902
vn -0.7609 -0.1744 0.6250
vn 0.6764 0.4209 -0.6044
vn 0.0610 0.9980 0.0155
vn -0.0628 -0.9979 -0.0146
vn 0.1348 -0.2155 0.9671
vn 0.1009 0.0667 -0.9927
vn -0.1089 -0.2479 0.9626
vn -0.0199 0.9987 -0.0479
vn 0.0282 -0.9990 0.0337
vn -0.9141 -0.0501 -0.4025
vn 0.7889 -0.0303 0.6138
vn -0.7363 0.1635 -0.6566
vn 0.0320 0.9995 -0.0050
vn -0.0292 -0.9996 0.0040
vn -0.3207 0.1122 -0.9405
vn -0.0416 -0.1467 0.9883
vn -0.1032 0.5094 -0.8543
usemtl Green.026
s off
f 2//1 5//1 4//1
f 130//2 60//2 4//2
f 8//3 132//3 7//3
f 3//4 2//4 6//4
f 1//5 8//5 7//5
f 11//6 10//6 12//6
f 10//7 9//7 13//7
f 1//8 15//8 14//8
f 15//9 12//9 14//9
f 16//10 19//10 18//10
f 146//11 74//11 18//11
f 145//12 21//12 22//12
f 17//13 16//13 20//13
f 1//14 22//14 21//14
f 82//15 79//15 81//15
f 25//16 28//16 29//16
f 24//17 23//17 27//17
f 1//18 29//18 28//18
f 31//19 34//19 33//19
f 114//20 89//20 33//20
f 37//21 116//21 36//21
f 32//22 31//22 35//22
f 30//23 37//23 36//23
f 40//24 39//24 41//24
f 39//25 38//25 42//25
f 30//26 44//26 43//26
f 44//27 41//27 43//27
f 45//28 48//28 47//28
f 122//29 103//29 47//29
f 121//30 50//30 51//30
f 46//31 45//31 49//31
f 30//32 51//32 50//32
f 52//33 141//33 108//33
f 53//34 52//34 54//34
f 30//35 56//35 55//35
f 61//36 58//36 60//36
f 136//37 60//37 133//37
f 59//38 62//38 58//38
f 57//39 63//39 64//39
f 67//40 66//40 65//40
f 66//41 69//41 65//41
f 57//42 70//42 71//42
f 71//43 68//43 67//43
f 74//44 73//44 72//44
f 152//45 74//45 149//45
f 73//46 76//46 72//46
f 57//47 77//47 78//47
f 23//48 81//48 79//48
f 84//49 81//49 85//49
f 80//50 83//50 79//50
f 57//51 84//51 85//51
f 90//52 87//52 89//52
f 117//53 90//53 89//53
f 88//54 91//54 87//54
f 86//55 92//55 93//55
f 96//56 95//56 94//56
f 95//57 98//57 94//57
f 86//58 99//58 100//58
f 100//59 97//59 96//59
f 103//60 102//60 101//60
f 128//61 103//61 125//61
f 102//62 105//62 101//62
f 86//63 106//63 107//63
f 53//64 144//64 139//64
f 144//65 108//65 141//65
f 109//66 110//66 108//66
f 86//67 111//67 112//67
f 2//68 60//68 58//68
f 4//69 131//69 130//69
f 131//70 61//70 136//70
f 5//71 59//71 61//71
f 132//72 63//72 7//72
f 2//73 62//73 6//73
f 3//74 62//74 59//74
f 64//75 135//75 134//75
f 1//76 64//76 8//76
f 11//77 65//77 9//77
f 11//78 71//78 67//78
f 10//79 68//79 12//79
f 9//80 69//80 13//80
f 10//81 69//81 66//81
f 12//82 70//82 14//82
f 18//83 72//83 16//83
f 146//84 19//84 147//84
f 19//85 152//85 147//85
f 19//86 73//86 75//86
f 21//87 151//87 77//87
f 16//88 76//88 20//88
f 17//89 76//89 73//89
f 77//90 150//90 78//90
f 24//91 82//91 26//91
f 25//92 85//92 81//92
f 23//93 83//93 27//93
f 24//94 83//94 80//94
f 28//95 82//95 84//95
f 1//96 63//96 57//96
f 1//97 70//97 57//97
f 1//98 71//98 15//98
f 1//99 77//99 57//99
f 1//100 78//100 22//100
f 1//101 84//101 57//101
f 1//102 85//102 29//102
f 31//103 89//103 87//103
f 114//104 34//104 115//104
f 115//105 90//105 120//105
f 32//106 90//106 34//106
f 116//107 92//107 36//107
f 31//108 91//108 35//108
f 32//109 91//109 88//109
f 93//110 119//110 118//110
f 37//111 86//111 93//111
f 38//112 96//112 94//112
f 40//113 100//113 96//113
f 39//114 97//114 41//114
f 38//115 98//115 42//115
f 39//116 98//116 95//116
f 41//117 99//117 43//117
f 45//118 103//118 101//118
f 47//119 123//119 122//119
f 48//120 128//120 123//120
f 46//121 104//121 48//121
f 50//122 127//122 106//122
f 45//123 105//123 49//123
f 46//124 105//124 102//124
f 106//125 126//125 107//125
f 55//126 143//126 111//126
f 52//127 139//127 138//127
f 23//128 26//128 25//128
f 52//129 110//129 54//129
f 53//130 110//130 109//130
f 111//131 142//131 112//131
f 30//132 92//132 86//132
f 30//133 99//133 86//133
f 30//134 100//134 44//134
f 30//135 106//135 86//135
f 30//136 107//136 51//136
f 30//137 111//137 86//137
f 30//138 112//138 56//138
f 137//139 55//139 56//139
f 114//140 116//140 113//140
f 119//141 117//141 118//141
f 118//142 114//142 113//142
f 115//143 119//143 116//143
f 113//144 93//144 118//144
f 122//145 124//145 121//145
f 127//146 125//146 126//146
f 126//147 122//147 121//147
f 123//148 127//148 124//148
f 121//149 107//149 126//149
f 130//150 132//150 129//150
f 135//151 133//151 134//151
f 134//152 130//152 129//152
f 136//153 132//153 131//153
f 129//154 64//154 134//154
f 138//155 140//155 137//155
f 143//156 141//156 142//156
f 142//157 138//157 137//157
f 139//158 143//158 140//158
f 56//159 142//159 137//159
f 146//160 148//160 145//160
f 151//161 149//161 150//161
f 150//162 146//162 145//162
f 147//163 151//163 148//163
f 145//164 78//164 150//164
f 2//165 3//165 5//165
f 130//166 133//166 60//166
f 8//167 129//167 132//167
f 11//168 9//168 10//168
f 15//169 11//169 12//169
f 16//170 17//170 19//170
f 146//171 149//171 74//171
f 145//172 148//172 21//172
f 82//173 80//173 79//173
f 25//174 26//174 28//174
f 31//175 32//175 34//175
f 114//176 117//176 89//176
f 37//177 113//177 116//177
f 40//178 38//178 39//178
f 44//179 40//179 41//179
f 45//180 46//180 48//180
f 122//181 125//181 103//181
f 121//182 124//182 50//182
f 52//183 138//183 141//183
f 61//184 59//184 58//184
f 136//185 61//185 60//185
f 67//186 68//186 66//186
f 71//187 70//187 68//187
f 74//44 75//44 73//44
f 152//188 75//188 74//188
f 23//189 25//189 81//189
f 84//190 82//190 81//190
f 90//191 88//191 87//191
f 117//192 120//192 90//192
f 96//193 97//193 95//193
f 100//194 99//194 97//194
f 103//195 104//195 102//195
f 128//196 104//196 103//196
f 53//197 109//197 144//197
f 144//198 109//198 108//198
f 2//199 4//199 60//199
f 4//200 5//200 131//200
f 131//201 5//201 61//201
f 5//202 3//202 59//202
f 132//203 135//203 63//203
f 2//204 58//204 62//204
f 3//205 6//205 62//205
f 64//206 63//206 135//206
f 1//207 57//207 64//207
f 11//208 67//208 65//208
f 11//209 15//209 71//209
f 10//210 66//210 68//210
f 9//211 65//211 69//211
f 10//212 13//212 69//212
f 12//213 68//213 70//213
f 18//214 74//214 72//214
f 146//215 18//215 19//215
f 19//216 75//216 152//216
f 19//217 17//217 73//217
f 21//218 148//218 151//218
f 16//219 72//219 76//219
f 17//220 20//220 76//220
f 77//221 151//221 150//221
f 24//222 80//222 82//222
f 25//223 29//223 85//223
f 23//224 79//224 83//224
f 24//225 27//225 83//225
f 28//226 26//226 82//226
f 1//227 7//227 63//227
f 1//228 14//228 70//228
f 1//229 57//229 71//229
f 1//230 21//230 77//230
f 1//231 57//231 78//231
f 1//232 28//232 84//232
f 1//233 57//233 85//233
f 31//234 33//234 89//234
f 114//235 33//235 34//235
f 115//236 34//236 90//236
f 32//237 88//237 90//237
f 116//238 119//238 92//238
f 31//239 87//239 91//239
f 32//240 35//240 91//240
f 93//241 92//241 119//241
f 37//242 30//242 86//242
f 38//243 40//243 96//243
f 40//244 44//244 100//244
f 39//245 95//245 97//245
f 38//246 94//246 98//246
f 39//247 42//247 98//247
f 41//248 97//248 99//248
f 45//249 47//249 103//249
f 47//250 48//250 123//250
f 48//251 104//251 128//251
f 46//252 102//252 104//252
f 50//253 124//253 127//253
f 45//254 101//254 105//254
f 46//255 49//255 105//255
f 106//256 127//256 126//256
f 55//257 140//257 143//257
f 52//258 53//258 139//258
f 23//259 24//259 26//259
f 52//260 108//260 110//260
f 53//261 54//261 110//261
f 111//262 143//262 142//262
f 30//263 36//263 92//263
f 30//264 43//264 99//264
f 30//265 86//265 100//265
f 30//266 50//266 106//266
f 30//267 86//267 107//267
f 30//268 55//268 111//268
f 30//269 86//269 112//269
f 137//270 140//270 55//270
f 114//271 115//271 116//271
f 119//272 120//272 117//272
f 118//273 117//273 114//273
f 115//274 120//274 119//274
f 113//275 37//275 93//275
f 122//276 123//276 124//276
f 127//277 128//277 125//277
f 126//278 125//278 122//278
f 123//279 128//279 127//279
f 121//280 51//280 107//280
f 130//281 131//281 132//281
f 135//282 136//282 133//282
f 134//283 133//283 130//283
f 136//284 135//284 132//284
f 129//285 8//285 64//285
f 138//286 139//286 140//286
f 143//287 144//287 141//287
f 142//288 141//288 138//288
f 139//289 144//289 143//289
f 56//290 112//290 142//290
f 146//291 147//291 148//291
f 151//292 152//292 149//292
f 150//293 149//293 146//293
f 147//294 152//294 151//294
f 145//295 22//295 78//295
