# Blender v3.6.1 OBJ File: 'NatureLevel.blend'
# www.blender.org
mtllib Rock_7.mtl
o Rock_7
v -0.299917 0.441715 0.246215
v 0.181244 0.424579 0.154834
v -0.380029 0.452047 -0.248656
v 0.123077 0.297819 -0.232413
v 0.090952 0.420267 0.093848
v 0.029866 0.435259 -0.298383
v 0.004376 0.530762 -0.297440
v -0.290612 0.546030 -0.234804
v -0.243685 0.546688 0.169692
v -0.290827 0.354926 0.293840
v 0.016228 0.427042 0.238594
v 0.235541 0.234762 0.152256
v 0.119447 0.063600 -0.427353
v -0.443175 0.168892 -0.349262
v -0.067333 0.167138 -0.452952
v -0.412974 0.295000 0.276714
v 0.219539 0.243792 0.266245
v 0.014148 0.293296 0.291022
v -0.412933 0.296362 0.370268
v 0.128996 0.182642 -0.271718
v -0.393154 0.312402 -0.240793
v -0.019947 0.302456 -0.316108
v 0.119781 -0.227213 -0.424840
v -0.532077 -0.227213 -0.343319
v -0.066543 -0.227213 -0.447010
v -0.484026 -0.227213 0.286096
v 0.256146 -0.302694 0.226585
v 0.038190 -0.302693 0.247770
v -0.478574 -0.302693 0.327092
v 0.144281 0.121890 -0.241793
v 0.152020 -0.227213 -0.274514
v -0.483359 0.193279 -0.223955
v -0.553190 -0.227213 -0.196513
v 0.322356 -0.227213 0.176060
v 0.312766 0.192819 0.161779
v 0.250574 0.069700 -0.164367
v 0.245175 -0.227213 -0.201720
v -0.096205 -0.227213 0.645318
v 0.206759 -0.227213 0.428210
v -0.478216 -0.227213 0.414063
v -0.097442 0.167754 0.636012
v 0.192955 0.187383 0.415312
v -0.389771 0.239954 0.404681
v 0.272969 -0.227213 0.377685
v 0.263378 0.136411 0.363404
v -0.263328 0.295288 0.342508
v -0.523074 -0.227213 -0.345325
v 0.232092 -0.227213 0.188377
v 0.021280 -0.227213 0.217143
vn 0.6042 0.7179 -0.3456
vn -0.0120 0.9985 -0.0529
vn 0.9643 0.1286 -0.2315
vn -0.1117 0.1725 -0.9787
vn -0.1070 0.2438 -0.9639
vn 0.1788 0.9268 -0.3302
vn -0.7698 0.5334 -0.3507
vn 0.0435 0.4841 0.8739
vn 0.1028 0.9630 0.2492
vn 0.3492 0.4226 0.8363
vn -0.8244 0.5472 0.1449
vn 0.9564 0.2566 -0.1391
vn 0.4321 0.3233 0.8419
vn -0.9822 0.0003 0.1880
vn -0.4390 0.8984 -0.0129
vn 0.9557 0.2719 0.1126
vn 0.4885 0.3042 -0.8178
vn 0.4597 0.6916 -0.5572
vn -0.1174 0.7262 -0.6774
vn 0.1410 0.6642 0.7342
vn -0.9909 0.1348 -0.0015
vn 0.1278 -0.0147 -0.9917
vn -0.2174 0.0341 -0.9755
vn 0.7175 0.6051 0.3450
vn -0.9357 0.1341 -0.3262
vn 0.6134 0.0876 -0.7849
vn -0.1528 0.8719 0.4652
vn 0.9714 0.1562 -0.1791
vn 0.9890 0.0354 -0.1435
vn -0.9845 0.1359 0.1108
vn -0.4419 0.8970 0.0132
vn 0.9811 0.0158 -0.1931
vn 0.0000 -1.0000 0.0000
vn 0.4775 0.8786 -0.0026
vn 0.9707 0.0349 0.2378
vn 0.6025 0.0449 0.7968
vn -0.5956 0.1287 0.7929
vn 0.6136 0.0450 0.7883
vn 0.1716 -0.9556 0.2394
vn 0.3040 -0.8653 0.3984
vn 0.2598 0.8869 0.3820
vn -0.7944 0.0434 0.6058
vn 0.1001 -0.7517 0.6519
vn 0.0819 0.3626 0.9283
vn -0.1187 -0.4783 -0.8701
vn -0.1241 -0.3968 -0.9095
vn -0.1186 -0.4805 -0.8689
vn 0.4763 0.7888 -0.3886
vn 0.9351 0.2706 -0.2290
vn 0.9573 0.1292 -0.2587
vn -0.1986 -0.0365 -0.9794
vn -0.2098 -0.0463 -0.9767
vn 0.8466 0.5204 -0.1120
vn 0.0458 0.9987 -0.0231
vn 0.3449 0.9377 -0.0415
vn -0.7281 0.6804 0.0834
vn 0.2287 0.5454 0.8064
vn -0.9817 0.1013 0.1610
vn 0.5019 -0.0732 -0.8618
vn 0.5778 0.4714 -0.6663
vn -0.2028 0.6345 -0.7459
vn -0.9556 0.0844 0.2824
vn 0.1181 -0.0084 -0.9930
vn -0.2660 -0.0151 -0.9639
vn -0.2173 0.0341 -0.9755
vn 0.7060 0.6115 0.3573
vn -0.9667 0.2149 -0.1390
vn 0.6141 0.0871 -0.7844
vn 0.0738 0.9292 0.3620
vn 0.1550 0.5601 0.8138
vn 0.9778 -0.0007 -0.2097
vn -0.9753 0.1711 0.1398
vn -0.7979 0.6027 -0.0103
vn 0.9797 0.0074 -0.2002
vn 0.9688 0.0305 0.2458
vn 0.5824 0.0210 0.8127
vn -0.5178 0.0185 0.8553
vn 0.6060 0.0472 0.7941
vn 0.0348 -0.9331 0.3578
vn 0.7984 -0.5694 0.1956
vn 0.2447 0.8830 0.4005
vn -0.9715 0.1809 -0.1530
vn -0.0938 -0.9834 0.1550
vn 0.1410 0.6641 0.7342
vn -0.0853 -0.4715 -0.8777
vn -0.1391 -0.3989 -0.9064
usemtl Rock.006
s off
f 12//1 36//1 30//1
f 11//2 2//2 5//2
f 30//3 20//3 4//3
f 22//4 3//4 6//4
f 8//5 6//5 3//5
f 4//6 5//6 2//6
f 14//7 32//7 21//7
f 11//8 1//8 10//8
f 8//9 5//9 7//9
f 5//10 9//10 1//10
f 9//11 3//11 1//11
f 6//12 7//12 5//12
f 18//13 2//13 11//13
f 1//14 21//14 10//14
f 16//15 19//15 10//15
f 2//16 17//16 12//16
f 22//17 4//17 20//17
f 15//18 20//18 13//18
f 15//19 21//19 22//19
f 19//20 46//20 10//20
f 26//21 19//21 16//21
f 13//22 25//22 15//22
f 47//23 24//23 14//23
f 17//24 45//24 35//24
f 14//25 33//25 32//25
f 31//26 36//26 37//26
f 46//27 43//27 41//27
f 20//28 30//28 13//28
f 31//29 13//29 30//29
f 32//30 26//30 16//30
f 21//31 16//31 10//31
f 34//32 36//32 35//32
f 31//33 49//33 33//33
f 12//34 17//34 35//34
f 34//35 45//35 44//35
f 41//36 39//36 42//36
f 40//37 41//37 43//37
f 39//38 45//38 42//38
f 28//39 39//39 38//39
f 27//40 44//40 39//40
f 18//41 42//41 17//41
f 29//42 43//42 19//42
f 28//43 40//43 29//43
f 10//44 18//44 11//44
f 31//33 25//33 23//33
f 34//45 27//45 48//45
f 48//33 37//33 34//33
f 48//46 28//46 49//46
f 49//47 29//47 26//47
f 49//33 37//33 48//33
f 12//48 35//48 36//48
f 2//49 12//49 4//49
f 12//50 30//50 4//50
f 22//51 21//51 3//51
f 8//52 7//52 6//52
f 4//53 6//53 5//53
f 11//54 5//54 1//54
f 8//55 9//55 5//55
f 9//56 8//56 3//56
f 18//57 17//57 2//57
f 1//58 3//58 21//58
f 22//59 6//59 4//59
f 15//60 22//60 20//60
f 15//61 14//61 21//61
f 26//62 29//62 19//62
f 13//63 23//63 25//63
f 14//64 15//64 25//64
f 25//65 47//65 14//65
f 17//66 42//66 45//66
f 14//67 24//67 33//67
f 31//68 30//68 36//68
f 41//69 18//69 46//69
f 46//70 19//70 43//70
f 31//71 23//71 13//71
f 32//72 33//72 26//72
f 21//73 32//73 16//73
f 34//74 37//74 36//74
f 49//33 26//33 33//33
f 33//33 24//33 47//33
f 47//33 31//33 33//33
f 34//75 35//75 45//75
f 41//76 38//76 39//76
f 40//77 38//77 41//77
f 39//78 44//78 45//78
f 28//79 27//79 39//79
f 27//80 34//80 44//80
f 18//81 41//81 42//81
f 29//82 40//82 43//82
f 28//83 38//83 40//83
f 10//84 46//84 18//84
f 31//33 47//33 25//33
f 48//85 27//85 28//85
f 49//86 28//86 29//86
f 49//33 31//33 37//33
