# Blender v3.6.1 OBJ File: 'NatureLevel.blend'
# www.blender.org
mtllib Rock_5.mtl
o Rock_5
v -0.173477 0.006286 0.349604
v -0.175999 0.550805 0.238668
v 0.194909 0.466562 0.101507
v 0.126443 0.534897 0.182864
v 0.152800 0.013281 0.395222
v 0.287116 0.017038 0.328502
v 0.247978 0.185820 0.274482
v -0.187478 0.278263 0.289753
v 0.127650 0.285096 0.281313
v 0.303605 0.017556 0.298091
v -0.118812 -0.001943 0.390446
v 0.230405 0.442089 0.061941
v 0.286693 0.183612 0.226206
v 0.340535 0.088362 0.213067
v -0.322655 0.004954 0.052786
v -0.275732 0.565005 0.027357
v 0.202127 0.484979 -0.033818
v -0.276056 0.005406 -0.336461
v -0.243284 0.550228 -0.232099
v 0.164643 0.395258 -0.194000
v 0.125672 0.569879 -0.021546
v 0.061153 0.534337 -0.275738
v -0.106078 0.589540 0.016418
v 0.018574 0.012129 -0.483886
v 0.167161 0.016008 -0.463553
v 0.106159 -0.055105 -0.017523
v -0.194044 -0.063243 0.031702
v 0.287027 0.017965 -0.047180
v 0.147276 0.184956 -0.400131
v -0.290216 0.304776 -0.334958
v 0.011109 0.311491 -0.427595
v -0.316151 0.310654 0.051391
v 0.192497 0.016602 -0.440001
v -0.237289 -0.002960 -0.392596
v 0.246359 0.435462 -0.041000
v 0.210425 0.369425 -0.164398
v 0.199380 0.182862 -0.366737
v 0.288817 0.236668 -0.047680
v 0.332865 0.089836 -0.054694
v 0.254641 0.087625 -0.371216
v -0.118812 0.069967 0.426120
v -0.173477 0.078197 0.385279
v -0.130847 0.271292 0.386755
v 0.152800 0.085191 0.430897
v 0.287116 0.088949 0.364176
v 0.131632 0.283035 0.388806
v 0.222532 0.166182 0.323012
vn 0.8642 -0.5013 -0.0421
vn 0.7414 0.3392 0.5790
vn 0.7007 0.4656 0.5406
vn 0.7628 0.6378 0.1063
vn 0.4734 0.5252 0.7071
vn -0.1338 0.9826 0.1292
vn 0.4160 -0.4041 0.8146
vn -0.4287 -0.8764 0.2194
vn 0.8254 0.3365 0.4533
vn -0.8924 0.0527 0.4483
vn 0.0223 0.1833 0.9828
vn -0.5929 -0.3579 0.7214
vn 0.1235 -0.9812 0.1486
vn -0.8434 0.1823 0.5055
vn 0.0878 0.9763 0.1978
vn 0.9568 0.2840 0.0624
vn 0.9678 0.2458 0.0551
vn -0.9810 0.1435 -0.1309
vn 0.7490 0.6584 0.0737
vn 0.8243 -0.5309 -0.1965
vn 0.5096 0.3255 -0.7965
vn 0.6502 0.5405 -0.5339
vn 0.6109 0.6211 -0.4909
vn 0.6101 0.5284 -0.5905
vn -0.1474 0.9863 -0.0746
vn -0.2941 0.1269 -0.9473
vn -0.4751 -0.8780 -0.0579
vn 0.6372 0.3355 -0.6939
vn -0.9918 -0.0463 -0.1188
vn -0.0867 0.5742 -0.8141
vn -0.8248 -0.0362 -0.5642
vn 0.0266 -0.9996 -0.0034
vn 0.3536 0.1814 -0.9176
vn 0.0587 0.9865 -0.1528
vn 0.9087 0.2871 -0.3031
vn 0.9045 0.2057 -0.3735
vn 0.6458 0.5917 -0.4825
vn -0.0287 0.2051 0.9783
vn -0.5821 0.1224 0.8038
vn 0.3264 0.6425 0.6933
vn 0.9532 0.1344 -0.2708
vn 0.5518 0.6314 0.5448
vn -0.0448 0.9988 0.0208
vn 0.0092 -0.4444 0.8958
vn -0.8655 0.1273 0.4845
vn 0.0037 -0.9900 -0.1410
vn 0.0525 -0.9861 0.1575
vn 0.8415 -0.5395 -0.0271
vn 0.7368 0.3266 0.5920
vn 0.7858 0.4444 0.4301
vn 0.7461 0.6533 0.1287
vn 0.8277 0.2092 0.5208
vn -0.3054 -0.9259 0.2223
vn -0.8786 0.0209 0.4771
vn 0.1875 0.3609 0.9135
vn 0.3718 -0.9281 -0.0190
vn 0.0267 -0.9996 -0.0026
vn -0.9968 -0.0355 0.0717
vn 0.1105 0.9797 0.1672
vn 0.8690 0.4943 -0.0222
vn 0.9696 0.2025 0.1372
vn -0.9742 0.2150 -0.0687
vn 0.6605 0.7385 0.1357
vn 0.8169 -0.5417 -0.1981
vn 0.5175 0.3373 -0.7864
vn 0.4458 0.6076 -0.6574
vn 0.8417 0.4627 -0.2783
vn 0.7738 0.2287 -0.5906
vn -0.3401 0.1656 -0.9257
vn -0.3431 -0.9342 -0.0978
vn -0.9975 0.0209 -0.0673
vn -0.2757 0.4159 -0.8666
vn 0.3614 -0.9286 -0.0838
vn 0.0643 -0.9859 -0.1542
vn 0.1172 0.3611 -0.9251
vn 0.0269 0.9850 -0.1707
vn 0.8411 0.4980 -0.2113
vn 0.9132 0.2736 -0.3021
vn 0.6059 0.6145 -0.5053
vn -0.0162 0.1909 0.9815
vn 0.7387 0.2149 0.6388
vn 0.4860 0.6914 0.5346
vn 0.7845 0.6199 -0.0172
vn -0.0194 0.9964 0.0829
vn -0.8846 0.1812 0.4297
vn 0.0070 -0.9896 -0.1440
vn 0.0526 -0.9861 0.1575
usemtl Rock.004
s off
f 28//1 14//1 10//1
f 7//2 14//2 13//2
f 13//3 3//3 7//3
f 3//4 21//4 4//4
f 3//5 9//5 7//5
f 16//6 2//6 23//6
f 5//7 45//7 44//7
f 27//8 1//8 15//8
f 6//9 10//9 7//9
f 8//10 15//10 1//10
f 9//11 2//11 8//11
f 11//12 42//12 1//12
f 10//13 5//13 26//13
f 8//14 42//14 43//14
f 4//15 23//15 2//15
f 13//16 39//16 38//16
f 38//17 12//17 13//17
f 19//18 32//18 16//18
f 17//19 12//19 35//19
f 40//20 28//20 33//20
f 29//21 40//21 33//21
f 37//22 20//22 36//22
f 20//23 21//23 17//23
f 31//24 20//24 29//24
f 16//25 23//25 19//25
f 31//26 34//26 30//26
f 18//27 27//27 15//27
f 25//28 29//28 33//28
f 15//29 30//29 18//29
f 31//30 19//30 22//30
f 30//31 34//31 18//31
f 24//32 25//32 33//32
f 29//33 24//33 31//33
f 22//34 23//34 21//34
f 39//35 37//35 38//35
f 38//36 36//36 35//36
f 17//37 36//37 20//37
f 46//38 41//38 44//38
f 43//39 42//39 41//39
f 47//40 44//40 45//40
f 7//41 45//41 6//41
f 9//42 47//42 7//42
f 9//43 43//43 46//43
f 5//44 41//44 11//44
f 2//45 32//45 8//45
f 34//46 26//46 27//46
f 11//47 26//47 5//47
f 28//48 39//48 14//48
f 7//49 10//49 14//49
f 13//50 12//50 3//50
f 3//51 17//51 21//51
f 3//52 4//52 9//52
f 5//7 6//7 45//7
f 27//53 11//53 1//53
f 8//54 32//54 15//54
f 9//55 4//55 2//55
f 11//12 41//12 42//12
f 26//56 28//56 10//56
f 10//57 6//57 5//57
f 8//58 1//58 42//58
f 4//59 21//59 23//59
f 13//60 14//60 39//60
f 38//61 35//61 12//61
f 19//62 30//62 32//62
f 17//63 3//63 12//63
f 40//64 39//64 28//64
f 29//65 37//65 40//65
f 37//66 29//66 20//66
f 20//67 22//67 21//67
f 31//68 22//68 20//68
f 31//69 24//69 34//69
f 18//70 34//70 27//70
f 15//71 32//71 30//71
f 31//72 30//72 19//72
f 33//73 28//73 26//73
f 26//74 24//74 33//74
f 29//75 25//75 24//75
f 22//76 19//76 23//76
f 39//77 40//77 37//77
f 38//78 37//78 36//78
f 17//79 35//79 36//79
f 46//80 43//80 41//80
f 47//81 46//81 44//81
f 7//82 47//82 45//82
f 9//83 46//83 47//83
f 9//84 8//84 43//84
f 5//44 44//44 41//44
f 2//85 16//85 32//85
f 34//86 24//86 26//86
f 11//87 27//87 26//87
