# Blender v3.6.1 OBJ File: 'NatureLevel.blend'
# www.blender.org
mtllib Rock_2.mtl
o Rock_2
v -0.283772 -0.044790 -0.247213
v -0.125798 0.472205 -0.205689
v 0.247213 -0.044790 -0.247213
v 0.185011 0.319176 -0.166453
v -0.216284 -0.044790 0.161298
v -0.145711 0.461472 0.161298
v 0.214758 -0.044790 0.207161
v 0.152638 0.304707 0.086825
v 0.000000 -0.090959 -0.247213
v 0.083519 0.454137 -0.102699
v 0.000000 -0.090959 0.247213
v 0.050830 0.443267 0.159579
v 0.061650 0.541523 0.159579
v -0.080139 0.554656 0.135523
v -0.086940 0.524514 -0.156757
v -0.219462 0.375613 -0.216279
v 0.200875 0.237252 -0.187050
v 0.000000 -0.002045 0.276436
v 0.214758 -0.002045 0.236384
v 0.192228 0.055198 0.208862
v 0.010394 0.370948 -0.171583
v 0.000000 -0.002045 -0.288593
v -0.283772 -0.002045 -0.288593
v 0.168633 0.223558 -0.232437
v 0.247213 -0.002045 -0.288593
v 0.010394 0.334761 -0.212963
v -0.192052 0.355073 -0.264095
v 0.224044 0.117603 -0.217132
v 0.174735 0.076991 0.168011
v -0.216284 0.182119 0.161298
v -0.007040 0.182119 0.214572
v -0.251617 0.186784 -0.231746
v 0.224044 0.117603 -0.258511
v 0.005197 0.184452 -0.250778
v -0.251617 0.186784 -0.273126
v 0.254431 0.117603 -0.217132
v 0.277600 -0.002045 -0.247213
v 0.245144 -0.002045 0.207161
v 0.222615 0.055198 0.179640
v -0.216284 0.147285 0.190520
v -0.216284 -0.002045 0.190520
v -0.007040 0.147285 0.243794
vn 0.1058 0.2617 -0.9593
vn -0.3630 0.1826 0.9137
vn 0.9800 0.1440 0.1371
vn -0.2463 0.0622 0.9672
vn -0.1605 -0.9867 0.0265
vn 0.0313 0.2460 0.9688
vn 0.8298 0.5436 0.1260
vn 0.1836 -0.9829 0.0131
vn -0.7168 0.6971 -0.0185
vn 0.1888 -0.0758 -0.9791
vn 0.1387 0.9430 -0.3026
vn 0.4287 0.4266 -0.7964
vn -0.7911 0.6111 -0.0251
vn 0.9870 -0.1087 0.1185
vn 0.0871 0.9325 -0.3506
vn -0.1914 0.6308 0.7520
vn 0.1610 0.4784 0.8633
vn 0.6993 -0.4972 -0.5136
vn 0.0869 0.0227 -0.9960
vn 0.0457 0.2612 -0.9642
vn 0.0000 -0.6955 -0.7185
vn 0.4290 0.6800 -0.5946
vn -0.9427 0.3337 0.0000
vn -0.0685 -0.4209 -0.9045
vn -0.9830 0.1277 0.1319
vn 0.0000 0.2438 -0.9698
vn 0.0000 0.0816 -0.9967
vn 0.7344 0.2958 -0.6109
vn 0.0000 1.0000 0.0000
vn 0.4425 0.8561 0.2672
vn -0.9789 0.1251 0.1617
vn 0.6218 -0.4420 0.6465
vn 0.9174 0.3926 0.0655
vn -0.4091 -0.5150 0.7533
vn 0.8137 -0.5784 0.0581
vn 0.0000 0.9945 0.1049
vn 0.4135 0.3411 0.8442
vn 0.3218 0.8857 0.3347
vn -1.0000 0.0000 0.0000
vn 0.2373 -0.3033 0.9229
vn 0.5893 0.5265 0.6128
vn 0.7710 0.2916 -0.5662
vn 0.1809 0.5280 -0.8297
vn -0.2467 0.0000 0.9691
vn 0.9779 0.1538 0.1414
vn 0.9787 0.1558 0.1340
vn 0.0271 0.2002 0.9794
vn -0.2088 -0.9780 0.0000
vn -0.1656 0.0182 0.9860
vn 0.8217 0.5534 0.1366
vn 0.2102 -0.9777 0.0000
vn -0.9830 0.1600 0.0903
vn -0.9610 0.2428 0.1325
vn 0.4412 0.3097 -0.8423
vn 0.4073 0.9074 -0.1031
vn -0.8223 0.5677 -0.0394
vn 0.2350 0.7317 -0.6399
vn 0.2653 0.2178 0.9392
vn 0.2598 0.2271 -0.9386
vn 0.0508 0.2420 -0.9689
vn 0.0786 -0.4206 -0.9038
vn 0.4421 0.7222 -0.5319
vn -0.8166 0.1839 -0.5471
vn -0.9858 0.1679 0.0000
vn 0.0258 0.1980 -0.9799
vn 0.0868 0.1956 -0.9768
vn 0.8861 0.4634 0.0000
vn 0.4938 0.5589 0.6662
vn -0.9960 0.0000 0.0895
vn 0.9810 0.1637 0.1044
vn -0.3531 -0.2921 0.8888
vn 0.3728 0.9116 0.1733
vn 0.6094 0.0318 0.7922
vn 0.1522 -0.5578 0.8159
usemtl Rock.001
s off
f 21//1 4//1 17//1
f 42//2 41//2 18//2
f 17//3 8//3 29//3
f 31//4 6//4 30//4
f 9//5 5//5 1//5
f 12//6 14//6 6//6
f 8//7 10//7 12//7
f 7//8 9//8 3//8
f 6//9 2//9 16//9
f 2//10 21//10 16//10
f 10//11 14//11 13//11
f 10//12 2//12 15//12
f 6//13 15//13 2//13
f 12//14 10//14 13//14
f 21//15 27//15 16//15
f 31//16 40//16 42//16
f 20//17 18//17 19//17
f 3//18 25//18 37//18
f 27//19 34//19 35//19
f 34//20 24//20 33//20
f 3//21 22//21 25//21
f 17//22 26//22 21//22
f 32//23 27//23 35//23
f 1//24 22//24 9//24
f 32//25 23//25 1//25
f 22//26 33//26 25//26
f 35//27 22//27 23//27
f 28//28 24//28 17//28
f 33//29 28//29 36//29
f 29//30 42//30 20//30
f 5//31 32//31 1//31
f 7//32 38//32 19//32
f 37//33 39//33 38//33
f 11//34 41//34 5//34
f 3//35 38//35 7//35
f 29//36 36//36 28//36
f 8//37 31//37 29//37
f 39//38 29//38 20//38
f 30//39 41//39 40//39
f 7//40 18//40 11//40
f 20//41 38//41 39//41
f 33//42 37//42 25//42
f 21//43 10//43 4//43
f 42//44 40//44 41//44
f 29//45 28//45 17//45
f 17//46 4//46 8//46
f 31//47 12//47 6//47
f 9//48 11//48 5//48
f 12//49 13//49 14//49
f 8//50 4//50 10//50
f 7//51 11//51 9//51
f 32//52 30//52 16//52
f 30//53 6//53 16//53
f 2//54 10//54 21//54
f 10//55 15//55 14//55
f 6//56 14//56 15//56
f 21//57 26//57 27//57
f 31//16 30//16 40//16
f 20//58 42//58 18//58
f 27//59 26//59 34//59
f 34//60 26//60 24//60
f 3//61 9//61 22//61
f 17//62 24//62 26//62
f 32//63 16//63 27//63
f 1//21 23//21 22//21
f 32//64 35//64 23//64
f 22//65 34//65 33//65
f 35//66 34//66 22//66
f 28//67 33//67 24//67
f 29//68 31//68 42//68
f 5//69 30//69 32//69
f 37//70 36//70 39//70
f 11//71 18//71 41//71
f 3//35 37//35 38//35
f 29//72 39//72 36//72
f 8//73 12//73 31//73
f 30//39 5//39 41//39
f 7//74 19//74 18//74
f 20//41 19//41 38//41
f 33//42 36//42 37//42
