# Blender v3.6.1 OBJ File: 'NatureLevel.blend'
# www.blender.org
mtllib Rock_1.mtl
o Rock_1
v -0.238611 -0.011035 -0.165009
v -0.178812 0.821234 -0.152265
v 0.103938 0.561278 -0.165741
v -0.142920 -0.008998 0.186735
v -0.145065 0.776881 0.117720
v 0.119133 0.537755 0.032391
v 0.043679 0.801294 -0.130138
v 0.060918 0.756351 0.083004
v -0.156429 0.826649 -0.128224
v -0.174819 0.638377 -0.189567
v 0.083329 -0.050476 0.215114
v 0.197534 0.004877 0.173606
v 0.002526 0.557971 -0.183989
v 0.010460 -0.051101 -0.229388
v -0.242368 -0.011068 -0.187927
v 0.146110 0.005021 -0.251634
v 0.132151 0.240822 -0.208972
v 0.164256 0.175454 0.140000
v -0.154824 0.330106 0.188273
v 0.061944 0.338925 0.183023
v -0.231768 0.336247 -0.157759
v 0.128394 0.240789 -0.231889
v 0.004690 0.342373 -0.207355
v -0.235525 0.336215 -0.180676
v 0.166541 0.005743 -0.231451
v 0.211554 0.005545 0.154687
v -0.140267 -0.008975 0.202919
v 0.136364 0.356558 0.053680
v -0.155275 0.553448 0.120481
v 0.056101 0.547592 0.100498
v 0.144806 0.497401 -0.149757
v 0.151051 0.483846 -0.011927
v 0.170176 0.343733 0.022159
v 0.197175 0.172604 0.109967
v 0.177154 0.240822 -0.176266
v 0.211544 0.051306 -0.198746
v 0.242955 0.049683 0.101793
vn 0.1681 0.1858 -0.9681
vn 0.7583 -0.6458 -0.0887
vn 0.6696 0.2018 0.7148
vn 0.0960 0.0809 0.9921
vn 0.9647 0.2622 -0.0227
vn -0.9739 0.0641 0.2177
vn 0.1192 0.1953 -0.9735
vn 0.1161 0.9403 -0.3199
vn -0.4265 0.8825 0.1983
vn 0.1727 0.1078 -0.9791
vn -0.0395 0.0799 0.9960
vn -0.1841 -0.9824 0.0316
vn -0.9921 -0.0454 0.1165
vn -0.9671 0.1990 0.1583
vn -0.9867 0.0161 0.1617
vn -0.1887 0.0679 -0.9797
vn -0.1534 0.0530 -0.9867
vn 0.9810 0.1081 -0.1610
vn 0.7703 0.2646 0.5802
vn -0.9649 0.0135 0.2624
vn 0.6964 0.1117 -0.7089
vn 0.7364 0.1476 0.6602
vn -0.9862 -0.0354 0.1617
vn 0.3756 -0.9248 -0.0603
vn 0.2313 0.2313 0.9450
vn 0.7865 0.3602 0.5016
vn 0.0114 0.2905 0.9568
vn -0.1124 0.1059 -0.9880
vn 0.1292 0.9731 0.1909
vn 0.9831 0.1814 -0.0255
vn 0.9913 0.1274 -0.0324
vn 0.8755 0.1377 0.4631
vn 0.7003 0.4103 0.5842
vn 0.4754 0.1524 -0.8665
vn 0.8405 0.5416 0.0152
vn 0.5807 0.1558 -0.7991
vn 0.7375 -0.6705 -0.0807
vn 0.7219 0.2565 0.6426
vn 0.1666 0.0046 0.9860
vn 0.9674 0.2495 -0.0446
vn -0.9739 0.1957 0.1150
vn 0.1148 0.2010 -0.9729
vn -0.0301 0.1998 -0.9794
vn 0.0224 0.0441 0.9988
vn -0.1471 -0.9881 0.0457
vn -0.1521 -0.9880 0.0264
vn -0.9961 0.0464 0.0755
vn -0.1522 0.0530 -0.9869
vn -0.1109 0.0229 -0.9936
vn -0.9757 -0.0352 0.2163
vn 0.9744 0.1578 -0.1600
vn 0.7362 0.0396 0.6756
vn 0.3235 -0.8990 -0.2953
vn 0.3415 -0.9390 -0.0403
vn 0.5084 -0.7873 0.3490
vn 0.5153 0.0985 0.8513
vn 0.8311 0.2245 0.5088
vn 0.0976 0.3684 0.9245
vn 0.0166 -0.0327 -0.9993
vn 0.1251 0.9728 0.1950
vn 0.9308 0.3530 -0.0954
vn 0.9898 0.1374 -0.0365
vn 0.9912 0.1282 -0.0317
vn 0.7093 0.2565 0.6565
vn 0.6338 0.4102 0.6558
vn 0.5762 0.1986 -0.7928
vn 0.8587 0.5125 -0.0050
vn 0.5651 0.1590 -0.8096
usemtl Rock
s off
f 13//1 7//1 3//1
f 25//2 37//2 26//2
f 18//3 37//3 34//3
f 8//4 29//4 30//4
f 6//5 7//5 8//5
f 29//6 21//6 19//6
f 10//7 7//7 13//7
f 7//8 2//8 9//8
f 2//9 5//9 9//9
f 3//10 23//10 13//10
f 20//11 27//11 11//11
f 11//12 27//12 4//12
f 10//13 5//13 2//13
f 21//14 10//14 24//14
f 1//15 24//15 15//15
f 14//16 22//16 16//16
f 15//17 23//17 14//17
f 3//18 17//18 22//18
f 12//19 26//19 18//19
f 4//20 21//20 1//20
f 22//21 25//21 16//21
f 6//22 30//22 28//22
f 19//23 4//23 27//23
f 14//24 26//24 11//24
f 18//25 11//25 12//25
f 28//26 20//26 18//26
f 20//27 29//27 19//27
f 24//28 13//28 23//28
f 8//29 9//29 5//29
f 34//30 36//30 35//30
f 31//31 32//31 33//31
f 28//32 32//32 6//32
f 28//33 34//33 33//33
f 17//34 36//34 25//34
f 3//35 32//35 31//35
f 17//36 31//36 35//36
f 25//37 36//37 37//37
f 18//38 26//38 37//38
f 8//39 5//39 29//39
f 6//40 3//40 7//40
f 29//41 10//41 21//41
f 10//42 2//42 7//42
f 3//43 22//43 23//43
f 20//44 19//44 27//44
f 4//45 1//45 14//45
f 1//46 15//46 14//46
f 14//12 11//12 4//12
f 10//47 29//47 5//47
f 1//15 21//15 24//15
f 14//48 23//48 22//48
f 15//49 24//49 23//49
f 4//50 19//50 21//50
f 22//51 17//51 25//51
f 6//52 8//52 30//52
f 14//53 16//53 25//53
f 25//54 26//54 14//54
f 26//55 12//55 11//55
f 18//56 20//56 11//56
f 28//57 30//57 20//57
f 20//58 30//58 29//58
f 24//59 10//59 13//59
f 8//60 7//60 9//60
f 34//61 37//61 36//61
f 34//62 35//62 33//62
f 35//63 31//63 33//63
f 28//64 33//64 32//64
f 28//65 18//65 34//65
f 17//66 35//66 36//66
f 3//67 6//67 32//67
f 17//68 3//68 31//68
