# Blender v3.6.1 OBJ File: 'NatureLevel.blend'
# www.blender.org
mtllib TreeStump_Moss.mtl
o TreeStump_Moss
v -0.011119 0.001398 -0.446654
v -0.011119 0.363649 -0.395416
v 0.267708 0.001398 -0.317448
v 0.233749 0.363649 -0.278571
v 0.435566 0.001398 -0.127909
v 0.367836 0.346862 -0.106683
v 0.360681 0.001398 0.209833
v 0.299045 0.363649 0.151645
v 0.115058 0.002056 0.344050
v 0.124375 0.337953 0.267064
v -0.142444 0.001398 0.392955
v -0.163306 0.302673 0.309052
v -0.370212 0.001398 0.252719
v -0.314929 0.363649 0.181824
v -0.427624 0.001398 -0.011958
v -0.358124 0.363649 -0.063147
v -0.304240 0.001398 -0.357158
v -0.270282 0.363649 -0.256334
v 0.118175 0.138734 0.326151
v -0.011119 0.142468 -0.434061
v 0.259362 0.142468 -0.307894
v 0.419554 0.139936 -0.123430
v 0.345534 0.153229 0.195532
v -0.150172 0.153842 0.361802
v -0.356625 0.167934 0.235296
v -0.410544 0.167934 -0.024538
v -0.295895 0.090426 -0.332379
v 0.216371 0.365909 -0.262810
v -0.024341 0.365909 -0.344538
v 0.322921 0.340231 -0.101924
v 0.265334 0.363826 0.109531
v 0.102922 0.339614 0.234317
v -0.124587 0.305533 0.261692
v -0.291617 0.365909 0.163442
v -0.308269 0.365909 -0.061806
v 0.201803 0.352174 -0.246801
v -0.022271 0.352174 -0.322880
v 0.305101 0.343295 -0.095453
v 0.227579 0.352174 0.113910
v 0.096536 0.325879 0.217559
v -0.113746 0.291798 0.240095
v -0.271072 0.334362 0.149988
v -0.286573 0.352174 -0.059690
v -0.212315 0.352174 -0.213151
v -0.542009 0.081232 0.167807
v -0.557001 0.000279 0.173684
v -0.494666 0.000279 0.027718
v -0.479282 0.099197 0.026176
v -0.645420 0.064600 0.045096
v -0.648009 -0.000238 0.053299
v -0.673747 -0.000238 -0.010412
v -0.669225 0.064600 -0.017323
v -0.761763 0.021677 0.086421
v -0.763707 -0.006498 0.092581
v -0.806447 -0.006498 0.052049
v -0.803051 0.021677 0.046859
v 0.412286 0.102916 0.364522
v 0.413106 -0.001087 0.380398
v 0.311167 0.091854 0.373101
v 0.300012 -0.000585 0.381334
v 0.385938 0.073121 0.484787
v 0.385441 -0.001087 0.500677
v 0.306918 0.062059 0.487153
v 0.295119 -0.000585 0.494434
v 0.460467 0.039156 0.568848
v 0.459970 0.000158 0.584738
v 0.381447 0.028094 0.571214
v 0.369648 0.000660 0.578496
v -0.222455 0.366623 -0.220705
v 0.213420 0.352174 -0.084232
v -0.236748 0.332754 -0.062145
v 0.312884 0.341957 -0.098279
v 0.304317 0.343362 -0.096601
v -0.184936 0.332754 -0.064687
v 0.165500 0.352174 -0.081881
v -0.147001 0.296425 0.141012
v 0.120700 0.332722 0.121643
v -0.112360 0.509899 -0.348768
v -0.235926 0.481180 -0.275709
v -0.102567 0.512370 -0.318379
v -0.210848 0.484432 -0.251506
v -0.144447 0.477818 -0.320349
v -0.127531 0.480653 -0.292843
v -0.197386 0.612248 -0.291028
v -0.180469 0.615083 -0.263522
v -0.201896 0.001398 0.356351
v -0.202882 0.273056 0.275843
v -0.204061 0.157520 0.328782
v -0.168185 0.275760 0.236047
v -0.154811 0.276849 0.216576
v 0.370270 0.254705 -0.120511
v 0.546459 0.405231 -0.253571
v 0.371942 0.249838 -0.070333
v 0.553119 0.405609 -0.237641
v 0.357764 0.265512 -0.048139
v 0.548177 0.417848 -0.226503
v 0.337317 0.287176 -0.055341
v 0.536575 0.429709 -0.231296
v 0.331047 0.293164 -0.084737
v 0.529915 0.429331 -0.247226
v 0.349681 0.275754 -0.129016
v 0.534857 0.417092 -0.258364
v 0.457873 0.355182 -0.167326
v 0.472391 0.414964 -0.154036
v 0.455331 0.347303 -0.158805
v 0.472276 0.413338 -0.150309
v 0.449018 0.345325 -0.155917
v 0.468778 0.413253 -0.148235
v 0.442849 0.347983 -0.158561
v 0.465395 0.414793 -0.149887
v 0.442994 0.352618 -0.164093
v 0.465510 0.416419 -0.153614
v 0.451869 0.357915 -0.170258
v 0.469008 0.416504 -0.155689
v 0.458959 0.397568 -0.150723
v 0.467383 0.406752 -0.155807
v 0.415414 0.411150 -0.154143
v 0.444735 0.443118 -0.171837
v 0.435987 0.395516 -0.146081
v 0.467570 0.428912 -0.167691
v 0.411713 0.440989 -0.168385
v 0.458835 0.396743 -0.152418
v 0.467259 0.405928 -0.157502
v 0.415290 0.410326 -0.155838
v 0.444610 0.442293 -0.173532
v 0.435863 0.394692 -0.147776
v 0.467446 0.428088 -0.169386
v 0.411589 0.440164 -0.170080
vn 0.4175 0.1564 -0.8951
vn 0.7354 0.2352 -0.6354
vn 0.9521 0.2208 0.2117
vn -0.2040 0.1317 0.9701
vn -0.4663 0.3724 0.8024
vn -0.9467 0.2554 0.1964
vn -0.1280 0.9908 -0.0449
vn -0.9030 0.1917 -0.3846
vn -0.3679 0.2812 -0.8863
vn 0.0005 -1.0000 0.0011
vn 0.1849 0.1235 0.9750
vn -0.2802 0.2817 -0.9177
vn -0.9264 0.1790 -0.3311
vn -0.5938 0.0001 -0.8046
vn -0.5190 0.1417 0.8430
vn 0.9709 0.1053 0.2153
vn 0.7443 0.1073 -0.6592
vn 0.4191 0.0807 -0.9044
vn 0.4725 0.2371 0.8488
vn 0.1426 0.3418 0.9289
vn -0.1886 0.7830 -0.5927
vn -0.0727 0.9925 0.0980
vn 0.0446 0.9946 -0.0935
vn 0.0646 0.9968 -0.0476
vn -0.1235 0.9737 0.1914
vn -0.0454 0.9990 0.0034
vn -0.4033 0.8670 -0.2927
vn -0.4222 0.8413 0.3375
vn 0.3082 0.8164 0.4883
vn -0.2710 0.9534 -0.1328
vn 0.1439 0.9870 -0.0709
vn 0.5323 0.8459 0.0325
vn -0.4929 0.7556 -0.4315
vn -0.1830 0.8222 0.5389
vn -0.0447 0.9988 -0.0203
vn 0.2318 -0.0512 -0.9714
vn 0.0148 -0.9999 -0.0032
vn -0.4039 0.9126 -0.0631
vn -0.3867 0.1378 0.9119
vn -0.3069 0.9445 0.1170
vn -0.7933 0.1075 0.5993
vn -0.1998 0.9792 0.0357
vn 0.0032 -1.0000 -0.0013
vn -0.6739 0.2019 0.7107
vn 0.0315 -0.9990 -0.0332
vn -0.4136 -0.0679 -0.9079
vn 0.3072 0.1830 0.9339
vn -0.0055 -1.0000 -0.0002
vn -0.0112 -0.9998 -0.0155
vn -0.0771 0.9468 0.3123
vn 0.9550 -0.0374 -0.2941
vn 0.7227 -0.2687 -0.6368
vn 0.9737 0.0414 0.2240
vn -0.0875 0.9712 0.2215
vn -0.9928 0.1193 -0.0058
vn -0.0646 0.2819 0.9573
vn -0.1101 0.8838 0.4547
vn -0.6878 0.2103 0.6948
vn -0.0070 -0.9998 0.0210
vn 0.6827 0.6518 0.3303
vn 0.1527 0.9872 -0.0467
vn -0.4377 0.0237 -0.8988
vn 0.5279 0.0945 0.8440
vn -0.4391 -0.0197 -0.8982
vn -0.5825 0.2951 0.7573
vn 0.8170 0.4905 -0.3032
vn -0.5742 -0.1402 -0.8066
vn 0.4435 0.1856 0.8769
vn -0.6339 0.7602 0.1425
vn 0.4436 -0.0207 0.8960
vn 0.7578 0.4093 -0.5082
vn -0.6852 0.2801 0.6723
vn 0.6821 0.6138 -0.3975
vn 0.2861 0.8373 0.4658
vn -0.5187 0.1459 0.8424
vn -0.4931 0.2516 0.8328
vn 0.5957 -0.7973 -0.0972
vn 0.7518 -0.2066 0.6262
vn 0.2997 0.5435 0.7841
vn -0.3963 0.8795 0.2637
vn 0.7385 0.5919 -0.3228
vn -0.7285 0.4752 -0.4934
vn -0.1863 -0.5192 -0.8341
vn 0.9656 -0.2546 0.0527
vn 0.4638 -0.2316 0.8551
vn -0.3905 0.0095 0.9206
vn -0.9333 0.2869 0.2159
vn 0.2131 0.8931 0.3962
vn -0.6654 0.3437 -0.6626
vn 0.4673 0.0822 -0.8803
vn 0.5882 0.1731 0.7900
vn 0.4246 0.1671 -0.8898
vn 0.7850 0.1699 -0.5958
vn 0.9382 0.2559 0.2332
vn -0.1949 0.1103 0.9746
vn -0.4415 0.3228 0.8372
vn -0.9438 0.2856 0.1664
vn -0.1308 0.9821 0.1355
vn -0.8986 0.1601 -0.4086
vn -0.4674 0.1522 -0.8709
vn 0.0000 -1.0000 0.0000
vn -0.0024 -1.0000 0.0004
vn 0.0020 -1.0000 -0.0032
vn 0.0020 -1.0000 -0.0012
vn 0.1402 0.2051 0.9687
vn -0.3486 0.0833 -0.9336
vn -0.9292 0.0679 -0.3632
vn -0.5090 0.0658 -0.8582
vn -0.5115 0.1306 0.8493
vn 0.9685 0.1173 0.2199
vn 0.7527 0.0887 -0.6524
vn 0.4212 0.0861 -0.9029
vn 0.4999 0.2813 0.8191
vn 0.1050 0.2798 0.9543
vn -0.1905 0.7936 -0.5778
vn -0.0937 0.9924 0.0792
vn 0.0138 0.9991 -0.0408
vn -0.1601 0.9753 -0.1524
vn 0.1690 0.9846 0.0452
vn -0.0848 0.9963 0.0150
vn -0.4178 0.8612 -0.2895
vn 0.1527 0.9872 -0.0470
vn 0.1769 0.9834 0.0398
vn 0.3898 0.6264 0.6750
vn -0.1869 0.7838 -0.5923
vn -0.3076 0.9390 -0.1537
vn 0.1440 0.9870 -0.0709
vn 0.8243 0.5628 -0.0609
vn -0.3111 0.9232 -0.2258
vn -0.0467 0.9987 -0.0207
vn 0.2071 -0.1180 -0.9712
vn 0.0051 -1.0000 0.0022
vn -0.6492 0.7486 0.1347
vn -0.3913 0.1273 0.9114
vn -0.2042 0.9554 0.2131
vn -0.7636 0.1863 0.6182
vn -0.1952 0.9779 0.0744
vn 0.0036 -1.0000 0.0016
vn -0.6762 0.2115 0.7057
vn 0.0475 -0.9987 -0.0192
vn -0.4186 -0.1155 -0.9008
vn 0.2971 0.1082 0.9487
vn -0.0044 -1.0000 -0.0010
vn -0.0045 -0.9999 -0.0132
vn 0.1406 0.9270 0.3476
vn 0.9344 0.0601 -0.3512
vn 0.7082 -0.1524 -0.6894
vn 0.9738 0.0418 0.2237
vn -0.1271 0.9608 0.2463
vn -0.9827 0.1802 -0.0425
vn -0.0251 0.3775 0.9257
vn -0.6730 0.4461 0.5900
vn 0.4958 0.8249 0.2714
vn -0.6894 0.2460 0.6813
vn 0.8345 0.5158 0.1939
vn -0.4727 0.0271 -0.8808
vn -0.6149 0.7280 0.3031
vn -0.8378 0.2399 0.4905
vn 0.3043 0.9164 0.2602
vn 0.3823 0.8376 0.3902
vn -0.5100 0.1427 0.8482
vn -0.7331 0.2895 0.6155
vn 0.5406 -0.8155 -0.2067
vn 0.7619 -0.2399 0.6017
vn 0.2697 0.5758 0.7718
vn -0.4579 0.8725 0.1707
vn 0.7385 0.5920 -0.3228
vn -0.6925 0.3122 -0.6503
vn -0.1863 -0.5193 -0.8341
vn 0.9729 -0.2215 -0.0666
vn 0.4999 -0.2355 0.8335
vn -0.4286 0.0274 0.9031
vn -0.9429 0.3150 0.1083
vn 0.2132 0.8931 0.3962
vn 0.2132 0.8932 0.3959
vn -0.4855 0.3421 -0.8045
vn 0.4675 0.0821 -0.8802
vn 0.0956 0.9954 -0.0068
vn -0.1749 0.9830 0.0555
vn 0.3649 0.9296 0.0520
vn 0.0000 1.0000 -0.0000
vn 0.0063 0.9917 0.1286
vn 0.3650 0.9141 0.1766
vn 0.0955 0.9954 -0.0072
vn -0.1180 0.9739 0.1938
vn 0.2948 0.9547 0.0405
vn -0.1316 0.9906 0.0375
vn -0.1772 0.9838 0.0255
vn 0.2994 0.9157 0.2682
vn 0.0149 0.4737 0.8806
vn 0.1525 0.3679 0.9173
vn 0.0657 0.4364 0.8973
vn -0.1227 -0.4547 -0.8821
vn -0.1525 -0.3679 -0.9173
vn -0.0657 -0.4364 -0.8973
vn 0.5355 0.7433 -0.4010
vn 0.5353 0.7434 -0.4010
vn 0.1648 -0.8917 0.4215
vn 0.9978 -0.0377 -0.0547
vn 0.7772 -0.5863 0.2285
vn -0.1027 0.8973 -0.4292
vn -0.9916 -0.0717 0.1074
vn -0.6497 -0.6640 0.3703
vn -0.0510 0.9952 0.0839
vn 0.0085 0.9850 0.1724
vn -0.0480 0.9892 0.1383
vn -0.1492 0.9841 0.0960
vn -0.4280 0.8847 0.1850
vn 0.1227 0.4547 0.8821
vn 0.1037 0.4694 0.8769
vn -0.0149 -0.4737 -0.8806
vn -0.1037 -0.4694 -0.8769
vn 0.5353 0.7437 -0.4003
vn 0.5354 0.7437 -0.4003
vn 0.5356 0.7434 -0.4006
vn 0.1648 -0.8915 0.4219
vn 0.7772 -0.5864 0.2282
vn -0.6496 -0.6639 0.3703
usemtl Wood.001
s off
f 2//1 21//1 20//1
f 21//2 6//2 22//2
f 6//3 23//3 22//3
f 9//4 59//4 19//4
f 87//5 25//5 88//5
f 14//6 26//6 25//6
f 10//7 33//7 12//7
f 26//8 18//8 27//8
f 18//9 20//9 27//9
f 15//10 3//10 9//10
f 19//11 11//11 9//11
f 27//12 1//12 17//12
f 15//13 27//13 17//13
f 15//14 48//14 26//14
f 88//15 13//15 86//15
f 22//16 7//16 5//16
f 3//17 22//17 5//17
f 20//18 3//18 1//18
f 23//19 10//19 19//19
f 19//20 12//20 24//20
f 32//21 41//21 33//21
f 10//22 31//22 32//22
f 2//23 28//23 4//23
f 6//24 31//24 8//24
f 4//25 30//25 6//25
f 16//26 34//26 35//26
f 12//27 89//27 87//27
f 28//28 36//28 73//28
f 69//29 37//29 29//29
f 89//30 41//30 90//30
f 72//31 38//31 31//31
f 35//32 42//32 43//32
f 32//33 39//33 40//33
f 28//34 37//34 36//34
f 35//35 18//35 16//35
f 47//36 52//36 48//36
f 13//37 47//37 15//37
f 25//38 48//38 45//38
f 13//39 45//39 46//39
f 52//40 53//40 49//40
f 46//41 49//41 50//41
f 48//42 49//42 45//42
f 47//43 50//43 51//43
f 53//44 55//44 54//44
f 51//45 54//45 55//45
f 51//46 56//46 52//46
f 50//47 53//47 54//47
f 60//48 62//48 64//48
f 7//49 60//49 9//49
f 23//50 59//50 57//50
f 7//51 57//51 58//51
f 62//52 65//52 66//52
f 58//53 61//53 62//53
f 59//54 61//54 57//54
f 60//55 63//55 59//55
f 66//56 67//56 68//56
f 61//57 67//57 65//57
f 64//58 67//58 63//58
f 62//59 68//59 64//59
f 69//60 43//60 44//60
f 72//61 73//61 38//61
f 82//62 79//62 84//62
f 69//63 29//63 83//63
f 18//64 79//64 82//64
f 69//65 79//65 18//65
f 29//66 78//66 80//66
f 2//67 82//67 78//67
f 69//68 83//68 81//68
f 82//69 80//69 78//69
f 81//70 83//70 85//70
f 83//71 84//71 85//71
f 81//72 84//72 79//72
f 89//73 42//73 34//73
f 87//74 34//74 14//74
f 24//75 86//75 11//75
f 12//76 88//76 24//76
f 91//77 94//77 93//77
f 93//78 96//78 95//78
f 96//79 97//79 95//79
f 98//80 99//80 97//80
f 100//81 98//81 96//81
f 100//82 101//82 99//82
f 101//83 92//83 91//83
f 103//84 106//84 105//84
f 105//85 108//85 107//85
f 108//86 109//86 107//86
f 110//87 111//87 109//87
f 104//88 112//88 108//88
f 112//89 113//89 111//89
f 113//90 104//90 103//90
f 83//91 29//91 80//91
f 2//92 4//92 21//92
f 21//93 4//93 6//93
f 6//94 8//94 23//94
f 9//95 60//95 59//95
f 87//96 14//96 25//96
f 14//97 16//97 26//97
f 10//98 32//98 33//98
f 26//99 16//99 18//99
f 18//100 2//100 20//100
f 17//101 1//101 15//101
f 1//101 3//101 15//101
f 3//101 5//101 7//101
f 7//102 9//102 3//102
f 9//103 11//103 86//103
f 15//101 86//101 13//101
f 9//104 86//104 15//104
f 19//105 24//105 11//105
f 27//106 20//106 1//106
f 15//107 26//107 27//107
f 15//108 47//108 48//108
f 88//109 25//109 13//109
f 22//110 23//110 7//110
f 3//111 21//111 22//111
f 20//112 21//112 3//112
f 23//113 8//113 10//113
f 19//114 10//114 12//114
f 32//115 40//115 41//115
f 10//116 8//116 31//116
f 2//117 29//117 28//117
f 6//118 30//118 31//118
f 4//119 28//119 30//119
f 16//120 14//120 34//120
f 12//121 33//121 89//121
f 72//122 30//122 73//122
f 30//123 28//123 73//123
f 69//124 44//124 37//124
f 89//125 33//125 41//125
f 39//126 31//126 38//126
f 31//127 30//127 72//127
f 35//128 34//128 42//128
f 32//129 31//129 39//129
f 28//34 29//34 37//34
f 35//130 69//130 18//130
f 47//131 51//131 52//131
f 13//132 46//132 47//132
f 25//133 26//133 48//133
f 13//134 25//134 45//134
f 52//135 56//135 53//135
f 46//136 45//136 49//136
f 48//137 52//137 49//137
f 47//138 46//138 50//138
f 53//139 56//139 55//139
f 51//140 50//140 54//140
f 51//141 55//141 56//141
f 50//142 49//142 53//142
f 60//143 58//143 62//143
f 7//144 58//144 60//144
f 23//145 19//145 59//145
f 7//146 23//146 57//146
f 62//147 61//147 65//147
f 58//148 57//148 61//148
f 59//149 63//149 61//149
f 60//150 64//150 63//150
f 66//151 65//151 67//151
f 61//57 63//57 67//57
f 64//152 68//152 67//152
f 62//59 66//59 68//59
f 69//153 35//153 43//153
f 69//154 81//154 79//154
f 29//155 2//155 78//155
f 2//156 18//156 82//156
f 82//157 83//157 80//157
f 83//71 82//71 84//71
f 81//158 85//158 84//158
f 89//159 90//159 42//159
f 87//160 89//160 34//160
f 24//161 88//161 86//161
f 12//162 87//162 88//162
f 91//163 92//163 94//163
f 93//164 94//164 96//164
f 96//165 98//165 97//165
f 98//166 100//166 99//166
f 96//167 94//167 100//167
f 94//167 92//167 100//167
f 92//167 102//167 100//167
f 100//168 102//168 101//168
f 101//169 102//169 92//169
f 103//170 104//170 106//170
f 105//171 106//171 108//171
f 108//172 110//172 109//172
f 110//173 112//173 111//173
f 108//174 106//174 104//174
f 104//175 114//175 112//175
f 112//88 110//88 108//88
f 112//176 114//176 113//176
f 113//177 114//177 104//177
usemtl Green.028
f 36//178 70//178 73//178
f 39//179 75//179 77//179
f 42//180 71//180 43//180
f 44//181 36//181 37//181
f 71//182 74//182 44//182
f 43//183 71//183 44//183
f 70//184 38//184 73//184
f 77//185 74//185 76//185
f 76//186 71//186 42//186
f 44//181 75//181 36//181
f 36//181 75//181 70//181
f 76//187 40//187 77//187
f 77//188 40//188 39//188
f 90//189 76//189 42//189
f 119//190 118//190 117//190
f 116//191 119//191 115//191
f 117//192 118//192 121//192
f 126//193 125//193 127//193
f 126//194 123//194 122//194
f 124//195 128//195 125//195
f 120//196 125//197 118//197
f 126//198 115//198 119//198
f 123//199 120//199 116//199
f 122//200 116//200 115//200
f 125//201 121//201 118//201
f 128//202 117//202 121//202
f 117//203 126//203 119//203
f 39//181 70//181 75//181
f 70//178 39//178 38//178
f 77//204 75//204 74//204
f 76//205 74//205 71//205
f 44//206 74//206 75//206
f 76//207 41//207 40//207
f 90//208 41//208 76//208
f 119//209 120//209 118//209
f 116//210 120//210 119//210
f 126//211 124//211 125//211
f 126//212 127//212 123//212
f 120//213 127//214 125//215
f 126//216 122//216 115//216
f 123//199 127//199 120//199
f 122//217 123//217 116//217
f 125//201 128//201 121//201
f 128//202 124//202 117//202
f 117//218 124//218 126//218
